<?xml version="1.0" encoding="utf-8"?>
<!-- Generator: Adobe Illustrator 22.1.0, SVG Export Plug-In . SVG Version: 6.00 Build 0)  -->
<svg version="1.1" id="Слой_1" xmlns="http://www.w3.org/2000/svg" xmlns:xlink="http://www.w3.org/1999/xlink" x="0px" y="0px"
	 viewBox="0 0 5965 2595" style="enable-background:new 0 0 5965 2595;" xml:space="preserve">
<style type="text/css">
	.st0{fill:#FEFEFE;}
	.st1{fill:#898989;}
	.st2{fill:#E6E6E6;}
	.st3{fill:#E9E9E9;}
	.st4{fill:#CECECE;}
	.st5{fill:#949494;}
	.st6{fill:#797979;}
	.st7{fill:#929292;}
	.st8{fill:#848484;}
	.st9{fill:#A3A3A3;}
	.st10{fill:#909090;}
	.st11{fill:#AEAEAE;}
	.st12{fill:#B3B3B3;}
	.st13{fill:#AAAAAA;}
	.st14{fill:#737373;}
	.st15{fill:#A4A4A4;}
	.st16{fill:#191919;}
	.st17{fill:#1F1F1F;}
	.st18{fill:#A9A9A9;}
	.st19{fill:#B5B5B5;}
	.st20{fill:#252525;}
	.st21{fill:#222222;}
	.st22{fill:#181818;}
	.st23{fill:#979797;}
	.st24{fill:#B7B7B7;}
	.st25{fill:#939393;}
	.st26{fill:#BABABA;}
	.st27{fill:#5E5E5E;}
	.st28{fill:#999999;}
	.st29{fill:#404040;}
	.st30{fill:#C1C1C1;}
	.st31{fill:#BDBDBD;}
	.st32{fill:#6E6E6E;}
	.st33{fill:#A2A2A2;}
	.st34{fill:#767676;}
	.st35{fill:#C6C6C6;}
	.st36{fill:#626262;}
	.st37{fill:#8F8F8F;}
	.st38{fill:#BEBEBE;}
	.st39{fill:#5F5F5F;}
	.st40{fill:#575757;}
	.st41{fill:#A5A5A5;}
	.st42{fill:#656565;}
	.st43{fill:#878787;}
	.st44{fill:#707070;}
	.st45{fill:#D8D8D8;}
	.st46{fill:#515151;}
	.st47{fill:#232323;}
	.st48{fill:#2C2C2C;}
	.st49{fill:#535353;}
	.st50{fill:#9D9D9D;}
	.st51{fill:#747474;}
	.st52{fill:#242424;}
	.st53{fill:#454545;}
	.st54{fill:#A1A1A1;}
	.st55{fill:#616161;}
	.st56{fill:#777777;}
	.st57{fill:#262626;}
	.st58{fill:#FFFFFF;}
</style>
<g>
	<g>
		<path class="st0" d="M2465.3,1774.4c-239.1,0-478.3,0-717.4,0.1c-3.6,0-4.8-0.4-4.7-4.5c0.1-134.8,0.1-269.6,0-404.4
			c0-3.7,0.9-4.3,4.4-4.3c343.8,0.1,687.5,0.1,1031.3,0c4.1,0,4.5,1.2,4.5,4.7c-0.1,134.6-0.1,269.3,0,403.9c0,4-0.9,4.6-4.7,4.5
			c-92.5-0.1-185-0.1-277.4-0.1c0-0.3,0.1-0.6,0.1-0.8c14.6-0.5,33.6,5.2,29.8-21.2c24.3-0.7,48.5-1.4,72.8-2.1
			c21.8,0.1,43.6,0.2,65.4,0.3c-2.6,13-1.9,22.4,16.1,20.2c12.8-1.6,26-1.2,38.8-0.1c10.8,0.9,15.6-2.2,14.2-13.2
			c0-7.4,3.6-9.6,10.8-9.4c4.2,0.1,11.1,1.6,12.1-5.1c5.1-37,10.4-74,8.9-111.5c0-0.7,0-1.5,0-2.2c4-59.5,8-119,11.9-178.5
			c0.3-5.3,2.7-11.6-4.7-14.6c-0.4-0.2-0.7-0.5-1.1-0.7c-0.3-0.2-0.6-0.4-0.9-0.7c-0.4-0.1-0.7-0.2-1.1-0.3
			c-0.3-0.2-0.6-0.4-0.9-0.6c-0.4-0.1-0.7-0.2-1.1-0.4c-2.5-1.3-4.8-3-7.4-4c-41.3-15.1-78.6-41.9-124.7-43.1
			c-0.3-1.7-0.6-3.3-0.9-5c0,0,0.1,0.1,0.1,0.1c0.2-0.3,0.5-0.7,0.7-1c0.1-0.6,0.2-1.2,0.4-1.8c0.2-0.4,0.5-0.8,0.7-1.2
			c0.4-0.6,0.9-1.3,1.3-1.9c0.6-1.2,1.2-2.5,1.8-3.7c-1.2-0.2-2.6-0.7-3.7-0.5c-7.5,1.3-14.9,3.4-22.5,4c-27.6,2.3-55.2,4-82.8,6
			c-0.6,0-1.3,0-1.9,0c-27.6-5.1-56.2-2.5-83.4-11.1c-0.5-0.2-1.8,2.1-2.8,3.3c1.1,3.9,2.2,7.8,3.3,11.7
			c-22.4,1.9-44.8,2.3-67.1-1.8c-5.9-0.8-12.6-3.8-17.5-2.1c-8.5,3-28.1-23.6-25.7,8.9c-61.6-0.3-123.2-0.6-184.9-0.8
			c-6.1,0-11.9,1.4-15.9,6.8c-0.4-0.6-0.9-1.1-1.3-1.7c-4.4-5.7-11-4.7-16.9-5.1c-20-1.5-40-2.7-59.9-4.1c0.1-0.3,0.1-0.6,0.2-0.9
			c0.3-0.4,0.5-0.7,0.8-1.1c0.1-0.3,0.1-0.6,0.2-0.9c0.3-0.4,0.5-0.7,0.8-1.1c0.1-0.3,0.1-0.7,0.2-1c0.2-0.3,0.5-0.7,0.7-1
			c0.1-0.7,0.2-1.3,0.3-2c0.2-0.3,0.5-0.7,0.7-1c0.1-1,0.3-1.9,0.4-2.9c0.2-0.7,0.5-1.4,0.7-2.1c0.1-0.7,0.1-1.4,0.2-2.1
			c0.2-0.6,0.5-1.3,0.7-1.9c-0.2-1.1-0.4-2.2-0.6-3.3c-10.5-2-18.4,5.4-27.7,7.4c-54.3,11.8-108.8,20.5-163.8,3.4
			c-2.3-0.7-7.3-3.1-6.6,3.4c0.5,2.1,0.9,4.1,1.4,6.2c-2.4,0.6-5,2.1-7.3,1.8c-45.1-6.6-75.4,22.3-108.3,44.9
			c-0.3,0.1-0.6,0.2-0.8,0.4c-0.2,0.3-0.5,0.5-0.7,0.8l-0.2,0.1c-0.3,0.3-0.6,0.6-0.9,0.9c-0.8,0.6-1.6,1.3-2.3,1.9
			c-0.9,1.5-2.6,2.9-2.7,4.5c-3.1,67.4,4.9,134.5,6.8,201.8c0,0.9,0.1,1.9,0.1,2.8c0.3,2.4,0.6,4.8,0.9,7.2c0,0.3,0,0.5,0.1,0.8
			c0.3,1.3,0.7,2.7,1,4c0.1,0.7,0.2,1.4,0.3,2.1c0.2,0.3,0.4,0.7,0.6,1c0,0.3,0.1,0.6,0.2,0.9c0.3,0.3,0.5,0.6,0.8,0.9c0,0,0,0,0,0
			c0.3,0.3,0.6,0.5,0.9,0.8c0.7,0.4,1.3,0.8,2,1.2c0.3,0.2,0.6,0.5,1,0.7c1.7,0.3,3.5,0.6,5.2,0.9c0.3-0.2,0.6-0.4,0.9-0.7
			c0.4-0.1,0.7-0.2,1.1-0.3c1.6,0.1,3.3,0.2,4.9,0.3c0,0,0,0,0,0c0.3,4.4,0.6,8.7,0.9,13.1c-0.5,3.8,0.9,5.2,4.9,5.2
			c15.4-0.2,30.9,0.1,46.3-0.2c3.2-0.1,8.2,2.2,9-3.9c0-3.4,0.1-6.8,0.1-10.2c0-0.6,0-1.2,0.1-1.8c0.3-0.3,0.7-0.6,1-1
			c8.8-0.1,17.6-0.2,26.5-0.3c29.5-0.3,58.9-0.6,88.4-0.9c14.3,0,28.5,0,42.8,0c35.4-0.3,70.8-0.5,106.1-1c4.8-0.1,7.3,1.3,7.1,6.3
			c1.9,28.3,22,7.9,32.9,11.4c13.6,4.3,28.8,2.8,22.7-19.5c26-0.8,52-1.5,78-2.3c40.5-0.7,80.9-1.3,121.4-2c5.8,1,14-1.4,13,9.2
			c1.8,4.3-3.9,11.3,4.8,13c5.8,0.3,11.6,1.3,17.4,0.8c13.8-1.3,23.1,1,30.5,15.9c9.4,19,11.5,41.8,28,57.2c3,6,6,12,9.1,18.1
			c0.4,0.6,0.7,1.3,1.1,1.9C2465.3,1773.8,2465.3,1774.1,2465.3,1774.4z"/>
		<path class="st1" d="M2501.4,1773.6c0,0.3-0.1,0.6-0.1,0.8c-12,0-24,0-36,0c0-0.3,0-0.7,0-1
			C2477.3,1773.5,2489.4,1773.6,2501.4,1773.6z"/>
		<path class="st2" d="M2361.4,1657.4c-40.5,0.7-80.9,1.3-121.4,2c-30.3,0-60.5-0.1-90.8-0.1c-5.5,0.7-11.1,1.6-13.1-5.7
			c-0.3-16.3-1.2-32.7-0.7-48.9c0.9-26.1-5-52.5,4-78.1c5.4-12.1,17-15.5,27.9-20c16-0.1,31.9-0.1,47.9-0.2
			c23.4,0.1,47-1.5,70.2,0.8c13.8,1.3,29.5-2.6,41.7,8.3c2.7,0.3,5.4,0.6,8.1,1l0,0c3,0.3,6,0.7,9,1c4.6,0.4,9.2,0.8,13.8,1.1
			c2.7,0.3,5.4,0.6,8.2,0.9c5.9,1.8,13.2-0.1,17.2,6.6c8.2,14.4,21.9,26,21.9,44.4c-0.1,2-0.1,3.9-0.2,5.9
			c-0.6,10.3,1.2,21.5-2.5,30.6c-6.6,16.4,15.9,44.8-19.5,49.4C2376,1657.3,2368.7,1657.1,2361.4,1657.4z"/>
		<path class="st2" d="M2455.1,1753.5c-16.5-15.4-18.7-38.2-28-57.2c-7.3-14.9-16.7-17.2-30.5-15.9c-5.7,0.5-11.6-0.5-17.4-0.8
			c7.5-9.9,50.3,22.9,28-23.1c0.4-22.3,0.7-44.7,1.1-67c5.1-21.3-4.2-38.1-16.4-54.3c-2.7-3.5-8.3-6.7-4.7-12.8
			c1.4-0.4,2.9-0.9,4.3-1c34.7-2.3,69,2.7,103.4,6.2c1.4,0.3,2.8,0.5,4.3,0.8c0.3,0.1,0.6,0.2,0.9,0.1c2.2,0.4,4.5,0.7,6.7,1.1
			c7.8,0.3,15.5,0.5,23.3,0.8c7.6,0.5,15.2,0.7,22.8,1.5c39.4,4.6,78.2,12.8,116.4,23.4c1.2,1.1,2.5,2.1,3.7,3.2
			c6.8,3.6,14.3,6.5,20.3,11.1c25.8,19.6,51.2,39.8,76.7,59.7c0,0.7,0,1.5,0,2.2c-22.2,0.7-44.5,1.1-66.7,2
			c-38.4,1.6-76.8,2.9-115.2,5.3c-31.4,2-62.8,5.2-94.2,8.2c-7.7,0.7-18.7-3.9-21.6,7c-2.3,8.8,1.9,17,11.9,20.6
			c0.9,0.3,1.2,5.6,0.8,5.7c-22.1,6.6-13.2,27.8-19.4,41.7c-3.2,7.2-3.5,14,8.3,12.2c1.2-0.2,3.3,2.9,4.3,4.9
			c0.3,0.6-1.9,2.8-3.3,3.6c-6.2,3.4-12.5,6.5-18.8,9.7C2455.9,1752.8,2455.5,1753.1,2455.1,1753.5z"/>
		<path class="st3" d="M2106.4,1669.7c0.2-5-2.3-6.4-7.1-6.3c-35.4,0.4-70.8,0.7-106.1,1c-14.3,0-28.5,0-42.8,0
			c-29.5,0.3-58.9,0.6-88.4,0.9c-2-34-4-68-6-102c1.1-2.6,2.2-5.2,3.2-7.8c1-0.7,2-1.4,2.9-2.1c2.1-0.9,4.3-1.5,6.2-2.7
			c42.6-25.5,88-30.8,135.9-19.4c6,0.1,12,0.2,18,0.2c10.6-1.1,21.2-2.2,31.8-3.3c19-0.6,38.1-1.2,57.1-1.9c0.7,0,1.3,0,2-0.1
			c7.4,3.7,21.9-6.6,21.5,12.5c-0.8,38.2-0.3,76.5-0.4,114.7c-1.8,11.1-10.2,10-17.9,9.3C2110.8,1662.3,2105.9,1661.7,2106.4,1669.7
			z"/>
		<path class="st4" d="M2456.3,1752.4c6.3-3.2,12.6-6.3,18.8-9.7c1.4-0.8,3.6-3,3.3-3.6c-0.9-2-3-5.1-4.3-4.9
			c-11.8,1.8-11.5-5-8.3-12.2c6.2-13.9-2.7-35.1,19.4-41.7c0.3-0.1,0.1-5.4-0.8-5.7c-10-3.6-14.2-11.8-11.9-20.6
			c2.9-10.9,13.9-6.2,21.6-7c31.4-3,62.7-6.2,94.2-8.2c38.4-2.4,76.8-3.7,115.2-5.3c22.2-0.9,44.5-1.4,66.7-2
			c1.5,37.5-3.8,74.5-8.9,111.5c-0.9,6.6-7.9,5.2-12.1,5.1c-7.2-0.2-10.9,2-10.8,9.4c-0.5-2.9-1.1-8.4-1.6-8.4
			c-22.5,0.2-45,0.8-67.4,1.5c-21.8-0.1-43.6-0.2-65.4-0.3c-24.9,0.1-49.8,0.1-74.7,0.2l0,0c-2,0-4,0-6-0.1
			c-2.9,0.1-5.9,0.1-8.8,0.2c-4.8-0.1-9.5-0.2-14.3-0.3c-1,0-1.9,0.1-2.9,0.1c0,0.3-0.1,0.5-0.1,0.8c-8.6,0.4-17.2,0.9-25.8,1.3
			C2466.3,1752.6,2461.3,1752.5,2456.3,1752.4z M2497.8,1677.6c3.2-1.4,6-2.6,8.7-3.8c-3.3-7.4-7.9,3.1-11.6-0.8
			c-0.1-0.1-1,0.5-1.6,0.8C2494.8,1675.1,2496.2,1676.3,2497.8,1677.6z M2484.1,1741.7c-0.9,0.6-1.8,1.3-2.7,1.9
			c0.9,0.6,1.8,1.6,2.6,1.5c1.3-0.1,2.5-1,3.8-1.5C2486.6,1743,2485.6,1742.5,2484.1,1741.7z M2477.2,1751.7
			c1.2-0.5,2.2-0.8,3.2-1.2c-1.2-0.6-2.4-1.5-3.6-1.6c-0.8-0.1-1.8,0.9-2.7,1.3C2475,1750.7,2476.1,1751.2,2477.2,1751.7z
			 M2497.2,1738.9c-1.7-1-2.6-1.8-3.6-2c-0.5-0.1-1.2,0.6-1.9,1c0.9,0.6,1.7,1.5,2.6,1.9C2494.9,1739.9,2495.7,1739.4,2497.2,1738.9
			z M2494.7,1667.4c-0.6-0.4-0.9-0.6-1.3-0.9c-0.1,0.4-0.4,0.7-0.4,1.1c0,0.2,0.5,0.6,0.6,0.5
			C2494,1668.1,2494.3,1667.8,2494.7,1667.4z M2477.8,1744.3c-0.1,0.1-0.2,0.3-0.1,0.4c0,0.1,0.2,0.2,0.3,0.2
			c0.1-0.2,0.2-0.4,0.2-0.6C2478,1744.3,2477.9,1744.3,2477.8,1744.3z"/>
		<path class="st5" d="M1753.2,1641.6c-1.9-67.3-9.9-134.4-6.8-201.8c0.1-1.5,1.8-3,2.7-4.5c27.7,0.8,55.4,0.7,83,2.7
			c13.4,1,23-3.4,31-13c5-6,9.5-12.4,14.2-18.6c-2.6,12.7-13.3,20.5-18.7,31.1c-4.2,8.3-17.6-2.3-15.8,9.4
			c6.8,44.9,1.9,90.1,3.3,135.1c0.7,22.3-0.9,44.3-0.9,66.4c0,7-2.3,10.6-7.4,11.1c-18.9,1.8-38,3.9-57,3.4
			c-13.5-0.3-27.9-3.6-23-23.7c0.3-1.1-1.7-2.8-2.6-4.2C1754.6,1637.2,1753.9,1639.4,1753.2,1641.6z"/>
		<path class="st6" d="M2770.2,1629.3c-25.5-20-50.9-40.1-76.7-59.7c-6.1-4.6-13.5-7.4-20.3-11.1c-0.3-1.3-0.6-2.6-0.9-4
			c2.2-3.8,6.1-7.5,6.5-11.5c3-28.6,5.1-57.2,7.8-85.8c0.9-9.1-1.9-19.9,14.6-19.4c25.3,0.8,50.8-1,76.2-1.7c7.4,3,5.1,9.3,4.7,14.6
			C2778.2,1510.3,2774.2,1569.8,2770.2,1629.3z"/>
		<path class="st7" d="M2335.3,1516.4c-2.7-0.3-5.4-0.6-8.1-1c1.7-3.3,3.3-6.5,5-9.8c18,4.9,5.5-9.4,7.2-13.4
			c11.8-27.7,10.4-56.7,4.9-85.8c-0.3-3.8-2.6-5.2-6.1-4.8c-66.2,5.7-132.5,1.8-198.7,1.7c0-1,0-2,0-3c0.6,0,1.3,0.1,1.9,0.1
			c2.7-0.3,5.3-0.7,8-1l0,0c61.9,0.1,123.7,0.1,185.6,0.4c4.8,0,9.5,1.8,14.3,2.8c-2.6-2.7-5.2-5.4-7.8-8.2c0-1,0-2,0-3
			c-0.3-0.3-0.6-0.7-0.9-1c0,0-0.3-0.1-0.3-0.1c-2.3-32.6,17.2-5.9,25.7-8.9c5-1.8,11.6,1.2,17.5,2.1c1.4,1.6,2.7,4.6,4.3,4.7
			c22.9,2.1,45.8,5.2,68.7,5.1c20.3-0.1,40.7-3.8,61-5.9c-15.9,9.6-29.5,21.4-39.4,37.5c-3.1,5,7,11.1-3.9,15.7
			c-14.4,6.1-31.3,12-41.5,21.3c-11.9,10.8-24.4,13.3-37.5,17.3c-20,6.2-35.1,19.1-49.7,33.2
			C2342,1513.8,2338.6,1515.1,2335.3,1516.4z"/>
		<path class="st8" d="M2345.3,1512.4c14.6-14.1,29.7-27,49.7-33.2c13-4,25.6-6.5,37.5-17.3c10.3-9.3,27.1-15.2,41.5-21.3
			c10.9-4.6,0.8-10.7,3.9-15.7c9.9-16.1,23.5-27.9,39.4-37.5c5.3-2,10.7-4,16-6c0.6,0,1.3,0,1.9,0c0,2.4,0.1,4.7,0.1,7.1
			c-5.8,0.5-11.6,1.1-17.4,1.6c3.4,1,6.8,1.9,10.1,3c0.4,0.1,0.4,1.3,0.6,1.9c-13-0.8-8.5,13.6-15.7,17.9c8.7,11.8-6.3,5.6-7.3,9.8
			c-0.2,1,1,3,2,3.6c3.8,1.8,7.8,3.2,11.7,4.8c-4.8,2.2-9.6,4.3-14.3,6.6c-0.9,0.4-1.4,1.5-2.1,2.3c13.8,6.1-1.8,15.9,2.6,22.1
			c6.4,9.1,4.7,13.6-5.6,15.8c0.5,1.1,1.2,3.3,1.3,3.2c17.2-4.7,8.7,4.6,6.3,11.1c-1.3,3.4-6.7,9.1,3.2,9.3c1.1,0,2.1,3.4,3.2,5.3
			c-1.3,0.4-2.5,0.8-3.8,1c-21.8,4.9-40.1-9.6-60.3-11.1c-17-1.3-34.7,0.4-51.5,3.7c-14.8,2.9-31.6,1.8-43.1,14.9
			C2352,1514.4,2348.6,1513.4,2345.3,1512.4z"/>
		<path class="st9" d="M1877.3,1406.4c-4.7,6.2-9.2,12.6-14.2,18.6c-8,9.6-17.6,14-31,13c-27.6-2-55.3-1.9-83-2.7
			c0.8-0.6,1.6-1.3,2.3-1.9c0.3-0.3,0.6-0.6,0.9-0.9c0,0,0.2-0.1,0.2-0.1c0.2-0.3,0.5-0.5,0.7-0.8c0.3-0.2,0.5-0.3,0.8-0.4
			c12.1-1.7,24.1-0.3,36.1-0.1c24.8,0.3,52.2,14.9,73.8-11c5.9-7-1-10.2-1.1-15.1c22.2-0.2,8.1-12.4,6.8-20.4
			c-0.5-2.1-0.9-4.1-1.4-6.2c5.6,2.2,11.5,3.6,16.6,6.6c17.3,10.2,29.4,29.2,53.1,28.3c19.1-0.7,38.2,0.5,55.1-10.7
			c1.5-1,2.7-2.5,4.1-3.8c0.4,1.9,0.7,3.8,1.1,5.6c0,0.7,0,1.3,0,2c0,0.7,0,1.3,0,2c0,0.7,0,1.3,0,2c-1.2,1.6-2.6,3-3.5,4.7
			c-9.2,17.9-10.3,41.7-35.7,47.9c-6.8,1.7-17.4,0.4-15.7,13.2c0.1,1-2.9,2.5-4.5,3.7c-1.2-1.8-1.9-4.2-3.5-5.1
			c-9.3-5.2,16-8.7,1.1-11.8c-13.3-2.7-21.9-8.4-27.6-20.2c-6.2-13-10-28.4-27.7-31.4c-0.6-1.3-1.3-2.7-1.9-4
			C1878.6,1407.1,1877.9,1406.8,1877.3,1406.4z"/>
		<path class="st8" d="M1877.3,1406.4c0.7,0.3,1.3,0.7,2,1c-0.6,3.7-1.9,7.4-1.8,11.1c1,38.5-1.5,76.7-11.6,114
			c-2.8,10.4-6.5,20.5-9.8,30.7c2,34,4,68,6,102c-8.8,0.1-17.6,0.2-26.5,0.3c-0.4-0.1-0.7-0.1-1.1-0.2c-20-0.3-40.1-0.6-60.1-0.9
			c-0.4,0-0.7,0-1.1,0c0,0,0,0,0,0c-1.6-0.1-3.3-0.2-4.9-0.3c-0.4,0.1-0.7,0.2-1.1,0.3c-0.3,0.2-0.6,0.4-0.9,0.7
			c-1.7-0.3-3.5-0.6-5.2-0.9c-0.3-0.2-0.6-0.5-1-0.7c-0.7-0.4-1.3-0.8-2-1.2c-0.3-0.3-0.6-0.5-0.9-0.8c0,0,0,0,0,0
			c-0.3-0.3-0.5-0.6-0.8-0.9c-0.1-0.3-0.2-0.6-0.2-0.9c-0.2-0.3-0.4-0.7-0.6-1c-0.1-0.7-0.2-1.4-0.3-2.1c-0.3-1.3-0.7-2.7-1-4
			c-0.1-0.2-0.1-0.5-0.1-0.8c-0.3-2.4-0.6-4.8-0.9-7.2c0-0.9-0.1-1.9-0.1-2.8c0.7-2.2,1.4-4.4,2.1-6.7c0.9,1.4,2.9,3.1,2.6,4.2
			c-4.9,20.1,9.5,23.4,23,23.7c19,0.5,38-1.6,57-3.4c5.1-0.5,7.4-4.1,7.4-11.1c0-22.1,1.6-44.1,0.9-66.4c-1.4-45,3.5-90.1-3.3-135.1
			c-1.8-11.8,11.6-1.1,15.8-9.4C1863.9,1426.9,1874.7,1419.1,1877.3,1406.4z"/>
		<path class="st10" d="M2777.4,1436.2c-25.4,0.7-50.8,2.5-76.2,1.7c-16.6-0.5-13.8,10.2-14.6,19.4c-2.7,28.6-4.9,57.3-7.8,85.8
			c-0.4,4-4.2,7.7-6.5,11.5c-1.3-1.1-2.6-2.1-3.9-3.2c-4.4-9.5-11.2-18.7-12.6-28.6c-2.6-17.8,0.3-36.6-3.2-54.2
			c-4.7-23.4-13.3-46.1-20.3-69.1c5.9,0.7,11.9,1.2,17.8,2.2c3,0.5,5.8,1.6,8.7,2.4c-2.6,1.2-5.4,2.2-7.8,3.8c-2.7,1.7-11,2.6-7,5.5
			c13,9.6,27.2,22.5,41.9,23.8c28.5,2.5,57.6-2,86.4-3.6c0.4,0.1,0.7,0.2,1.1,0.4c0.3,0.2,0.6,0.4,0.9,0.6c0.4,0.1,0.7,0.2,1.1,0.3
			c0.3,0.2,0.6,0.4,1,0.7C2776.7,1435.7,2777,1435.9,2777.4,1436.2z"/>
		<path class="st11" d="M1998.3,1404.4c-0.4-1.9-0.7-3.8-1.1-5.6c-1.4,1.3-2.6,2.8-4.1,3.8c-16.9,11.2-36,10-55.1,10.7
			c-23.7,0.9-35.8-18.1-53.1-28.3c-5.1-3-11.1-4.4-16.6-6.6c-0.6-6.6,4.3-4.2,6.6-3.4c55,17.2,109.5,8.4,163.8-3.4
			c9.3-2,17.2-9.4,27.7-7.4C2051,1389.9,2029.5,1405.4,1998.3,1404.4z"/>
		<path class="st12" d="M1869.6,1384.6c1.4,8,15.4,20.2-6.8,20.4c0.1,5,6.9,8.1,1.1,15.1c-21.6,26-49,11.3-73.8,11
			c-12-0.1-24-1.5-36.1,0.1c32.9-22.6,63.2-51.5,108.3-44.9C1864.6,1386.8,1867.2,1385.3,1869.6,1384.6z"/>
		<path class="st13" d="M2772.3,1433.4c-28.8,1.6-57.9,6.1-86.4,3.6c-14.7-1.3-28.9-14.1-41.9-23.8c-4-3,4.3-3.9,7-5.5
			c2.4-1.5,5.2-2.5,7.8-3.8c-2.9-0.8-5.7-2-8.7-2.4c-5.9-0.9-11.9-1.5-17.8-2.2c2.6-4.3,5.3-8.7,7.9-13c46.1,1.2,83.4,28,124.7,43.1
			C2767.5,1430.4,2769.8,1432.1,2772.3,1433.4z"/>
		<path class="st8" d="M2642.4,1375.6c-0.4,0.6-0.9,1.3-1.3,1.9c-0.2,0.4-0.5,0.8-0.7,1.2c-0.1,0.6-0.2,1.2-0.4,1.8
			c-0.2,0.3-0.5,0.7-0.7,1c0,0-0.1-0.1-0.1-0.1c-17.6,19-35.3,37.9-52.9,56.9c-15.7,0-31.4,0-47.1,0c8.7-1.9,23.1,2.1,8.5-15.9
			c-5.6-6.9-26.2-14.9-12.6-31.9c0.8,6.7,19.5-6.5,11.2,9.8c-3.5,6.9-0.4,9,5,8.9c8.8-0.2,18.1-0.1,26.3-2.9
			c10.9-3.7,20.8-10.5,31.4-15.3C2620.3,1386,2628,1373.4,2642.4,1375.6z"/>
		<path class="st14" d="M2586.3,1438.3c17.6-19,35.3-37.9,52.9-56.9c0.3,1.7,0.6,3.3,0.9,5c-2.6,4.3-5.3,8.7-7.9,13
			c7,23,15.6,45.6,20.3,69.1c3.5,17.6,0.6,36.3,3.2,54.2c1.4,9.9,8.3,19.1,12.6,28.6c-11.4-11.6-25.9-22-27.5-39.1
			c-3.3-33.8-4.3-67.8-6-101.7c-0.2-3.7-0.1-6.3-4.6-6.1c-1-0.6-2.1-1.2-3.1-1.8c0.7,2,1.4,3.9,2.1,5.9c0,0.9-0.1,1.9-0.1,2.8
			c-0.3,0-0.6,0-0.9,0.1c-0.7-0.3-1.4-0.6-2.1-0.9c-3.3-0.1-4.8,2.9-6.7,4c-8.7,5,6.8,11.6-2,16c-3.4,1.7-5.5,5.9-8.2,8.9
			c-1.7,0-3.4-0.1-5.1-0.1c-2.7-0.3-5.4-0.5-8.1-0.8C2592.8,1438.5,2589.6,1438.4,2586.3,1438.3z"/>
		<path class="st15" d="M2642.4,1375.6c-14.4-2.1-22.1,10.4-33.3,15.4c-10.6,4.8-20.5,11.6-31.4,15.3c-8.1,2.8-17.5,2.7-26.3,2.9
			c-5.5,0.1-8.6-2-5-8.9c8.4-16.3-10.4-3.1-11.2-9.8c0-0.7,0.1-1.3,0.1-2c0-2.4-0.1-4.7-0.1-7.1c27.6-2,55.2-3.8,82.8-6
			c7.6-0.6,15-2.7,22.5-4c1.2-0.2,2.5,0.3,3.7,0.5C2643.6,1373.1,2643,1374.3,2642.4,1375.6z"/>
		<path class="st16" d="M2669.4,1750.6c22.5-0.6,45-1.3,67.4-1.5c0.5,0,1.1,5.5,1.6,8.4c1.5,11.1-3.4,14.1-14.2,13.2
			c-12.9-1.1-26.1-1.5-38.8,0.1C2667.5,1773,2666.8,1763.6,2669.4,1750.6z"/>
		<path class="st17" d="M2514.5,1750.6c2.9-0.1,5.9-0.1,8.8-0.2c2,0,4,0,6,0.1c0,0,0,0,0,0c0.7,0.6,1.3,1.3,2,1.9
			c3.8,26.4-15.2,20.7-29.8,21.2c-12.1-0.1-24.1-0.1-36.2-0.2c-0.4-0.6-0.7-1.3-1.1-1.9c3.2-6-4.7-16.2,7.2-18.9
			c8.6-0.4,17.2-0.9,25.8-1.3C2503,1751.1,2508.7,1750.8,2514.5,1750.6z"/>
		<path class="st18" d="M2533.3,1381.4c-5.3,2-10.7,4-16,6c-20.3,2.1-40.6,5.8-61,5.9c-22.9,0.1-45.8-3-68.7-5.1
			c-1.6-0.1-2.9-3.1-4.3-4.7c22.3,4.2,44.7,3.8,67.1,1.8c1.4-2.1,1.6-6.1,5.8-3.9c1.3,0.7,0.4,5.6,3.7,2.2c0.4-0.4-1.1-3.8-2.5-4.7
			c-3.2-2.1-6.8-3.5-10.3-5.2c0.9-1.1,2.3-3.4,2.8-3.3C2477.1,1378.9,2505.7,1376.3,2533.3,1381.4z"/>
		<path class="st19" d="M2141.3,1400.4c-0.6,0-1.3-0.1-1.9-0.1c0-1,0-2,0-3.1c0-0.3,0-0.6-0.1-0.9c3.9-5.4,9.7-6.8,15.9-6.8
			c61.6,0.2,123.2,0.5,184.9,0.8c0,0,0.3,0.1,0.3,0.1c0.3,0.3,0.6,0.7,0.9,1c0,1,0,2,0,3c-29.5-0.3-59.1-1.6-88.6-0.8
			c-34.5,1-69,3.8-103.4,5.8c0,0,0,0,0,0C2146.6,1399.8,2144,1400.1,2141.3,1400.4z"/>
		<path class="st20" d="M2106.4,1669.7c-0.6-8.1,4.3-7.4,10-6.9c7.7,0.7,16.1,1.8,17.9-9.3c0.6,0,1.2,0,1.8,0
			c2,7.3,7.6,6.4,13.1,5.7c4.3,0.8,8.5,1.6,12.8,2.3c6.1,22.3-9,23.8-22.7,19.5C2128.5,1677.6,2108.3,1698.1,2106.4,1669.7z"/>
		<path class="st21" d="M1774.4,1664.5c20,0.3,40.1,0.6,60.1,0.9c0,0.4,0,0.8,0.1,1.2c0,0.6,0,1.2-0.1,1.8c0,3.4-0.1,6.8-0.1,10.2
			c-0.8,6.2-5.8,3.9-9,3.9c-15.4,0.3-30.8,0-46.3,0.2c-4,0.1-5.4-1.4-4.9-5.2C1774.2,1673.2,1774.3,1668.8,1774.4,1664.5z"/>
		<path class="st22" d="M2407.2,1656.5c22.4,46-20.4,13.3-28,23.1c-8.7-1.7-3-8.7-4.8-13c-0.5-7.5,3.7-8.2,10-8.3
			c6.3-0.1,13.3,2.5,18.8-2.9C2404.6,1655.8,2405.9,1656.1,2407.2,1656.5z"/>
		<path class="st11" d="M2061.1,1385.5c20,1.3,40,2.6,59.9,4.1c6,0.4,12.5-0.6,16.9,5.1c-1.8,1.7-3.7,4.9-5.5,4.9
			c-16.3-0.1-33,1.3-48.6-2.1c-8-1.7-18.6,4-24.6-6c0-0.7,0-1.4,0-2C2059.9,1388.1,2060.5,1386.8,2061.1,1385.5z"/>
		<path class="st23" d="M2061.1,1385.5c-0.6,1.3-1.3,2.6-1.9,3.9c-0.3-0.3-0.6-0.6-0.9-0.9c-2.5,1-5.2,1.7-7.5,3.1
			c-1.1,0.7-1.4,2.7-2,4.2c1.1,0.2,2.3,0.5,3.4,0.7c-3.8,5.7-1.1,16.7-12.9,15.8c-13-2.3-26.1-4.5-39.1-6.8
			c-0.3,0.3-0.6,0.6-0.9,0.9l-0.1,0c-0.3,0-0.7,0-1,0c0-0.7,0-1.3,0-2c31.2,1,52.7-14.5,68.1-40.3c0.2,1.1,0.4,2.2,0.6,3.3
			c-0.2,0.6-0.5,1.3-0.7,1.9c-0.1,0.7-0.1,1.4-0.2,2.1c-0.2,0.7-0.5,1.4-0.7,2.1c-0.1,1-0.3,1.9-0.4,2.9c-0.2,0.3-0.5,0.7-0.7,1
			c-0.1,0.7-0.2,1.3-0.3,2c-0.2,0.3-0.5,0.7-0.7,1c-0.1,0.3-0.1,0.7-0.2,1c-0.3,0.4-0.5,0.7-0.8,1.1c0,0.3-0.1,0.6-0.2,0.9
			c-0.3,0.4-0.5,0.7-0.8,1.1C2061.3,1384.9,2061.2,1385.2,2061.1,1385.5z"/>
		<path class="st23" d="M2059.2,1391.5c6,10,16.6,4.3,24.6,6c15.6,3.4,32.3,2,48.6,2.1c1.8,0,3.7-3.2,5.5-4.9
			c0.4,0.6,0.9,1.1,1.3,1.7c0,0.3,0,0.6,0.1,0.9c-20.5,11.8-42,3.9-63.1,3c-5.1-0.2-10.4-4.8-15.1,1.2c-2.7,0.5-5.4,1-8.1,1.4
			C2055.1,1399,2057.2,1395.2,2059.2,1391.5z"/>
		<path class="st24" d="M2403.3,1655.4c-5.5,5.5-12.6,2.8-18.8,2.9c-6.3,0.1-10.5,0.8-10,8.3c1-10.6-7.2-8.2-13-9.2
			c7.3-0.3,14.6-0.1,21.8-1.1c35.4-4.6,12.9-32.9,19.5-49.4c3.6-9.1,1.8-20.3,2.5-30.6C2404.5,1602.7,2403.9,1629.1,2403.3,1655.4z"
			/>
		<path class="st25" d="M2531.2,1752.4c-0.7-0.6-1.3-1.3-2-1.9c24.9-0.1,49.8-0.1,74.7-0.2C2579.7,1751,2555.5,1751.7,2531.2,1752.4
			z"/>
		<path class="st14" d="M2471.4,1752.6c-11.9,2.7-3.9,12.9-7.2,18.9c-3-6-6-12-9.1-18.1c0.4-0.4,0.8-0.7,1.1-1.1
			C2461.3,1752.5,2466.3,1752.6,2471.4,1752.6z"/>
		<path class="st12" d="M2162.1,1661.6c-4.3-0.8-8.5-1.6-12.8-2.3c30.3,0,60.5,0.1,90.8,0.1
			C2214.1,1660.1,2188.1,1660.9,2162.1,1661.6z"/>
		<path class="st7" d="M2447.1,1373.6c3.5,1.7,7.1,3.1,10.3,5.2c1.4,0.9,2.9,4.3,2.5,4.7c-3.4,3.4-2.4-1.5-3.7-2.2
			c-4.2-2.2-4.4,1.8-5.8,3.9C2449.3,1381.4,2448.2,1377.5,2447.1,1373.6z"/>
		<path class="st26" d="M1950.4,1664.4c14.3,0,28.5,0,42.8,0C1978.9,1664.4,1964.7,1664.4,1950.4,1664.4z"/>
		<path class="st5" d="M1774.4,1664.5c-0.1,4.3-0.1,8.7-0.2,13c-0.3-4.4-0.6-8.7-0.9-13.1C1773.6,1664.5,1774,1664.5,1774.4,1664.5z
			"/>
		<path class="st5" d="M1834.4,1678.5c0-3.4,0.1-6.8,0.1-10.2C1834.5,1671.7,1834.4,1675.1,1834.4,1678.5z"/>
		<path class="st5" d="M1753.3,1644.4c0.3,2.4,0.6,4.8,0.9,7.2C1753.9,1649.3,1753.6,1646.9,1753.3,1644.4z"/>
		<path class="st5" d="M1768.4,1664.2c1.6,0.1,3.3,0.2,4.9,0.3C1771.7,1664.4,1770,1664.3,1768.4,1664.2z"/>
		<path class="st5" d="M1754.3,1652.4c0.3,1.3,0.7,2.7,1,4C1754.9,1655.1,1754.6,1653.8,1754.3,1652.4z"/>
		<path class="st11" d="M2065.4,1373.6c0.2-0.7,0.5-1.4,0.7-2.1C2065.8,1372.2,2065.6,1372.9,2065.4,1373.6z"/>
		<path class="st11" d="M2066.3,1369.4c0.2-0.6,0.5-1.3,0.7-1.9C2066.7,1368.2,2066.5,1368.8,2066.3,1369.4z"/>
		<path class="st13" d="M2776.3,1435.4c-0.3-0.2-0.6-0.4-1-0.7C2775.7,1435,2776,1435.2,2776.3,1435.4z"/>
		<path class="st5" d="M1755.6,1658.5c0.2,0.3,0.4,0.7,0.6,1C1756,1659.2,1755.8,1658.9,1755.6,1658.5z"/>
		<path class="st11" d="M2061.3,1384.5c0.3-0.4,0.5-0.7,0.8-1.1C2061.9,1383.8,2061.6,1384.2,2061.3,1384.5z"/>
		<path class="st5" d="M1756.5,1660.5c0.3,0.3,0.5,0.6,0.8,0.9C1757,1661.1,1756.8,1660.8,1756.5,1660.5z"/>
		<path class="st5" d="M1757.3,1661.4c0.3,0.3,0.6,0.5,0.9,0.8C1757.9,1662,1757.6,1661.7,1757.3,1661.4z"/>
		<path class="st12" d="M1752.3,1432.6c-0.3,0.3-0.6,0.6-0.9,0.9C1751.7,1433.2,1752,1432.9,1752.3,1432.6z"/>
		<path class="st5" d="M1766.4,1665.1c0.3-0.2,0.6-0.4,0.9-0.7C1767,1664.7,1766.7,1664.9,1766.4,1665.1z"/>
		<path class="st12" d="M1753.2,1431.7c-0.2,0.3-0.5,0.5-0.7,0.8C1752.7,1432.2,1752.9,1431.9,1753.2,1431.7z"/>
		<path class="st5" d="M1834.5,1666.6c0-0.4,0-0.8-0.1-1.2c0.4,0.1,0.7,0.1,1.1,0.2C1835.2,1665.9,1834.9,1666.3,1834.5,1666.6z"/>
		<path class="st11" d="M2062.3,1382.5c0.3-0.4,0.5-0.7,0.8-1.1C2062.8,1381.8,2062.6,1382.2,2062.3,1382.5z"/>
		<path class="st13" d="M2774.3,1434.5c-0.3-0.2-0.6-0.4-0.9-0.6C2773.7,1434,2774,1434.2,2774.3,1434.5z"/>
		<path class="st15" d="M2639.3,1381.5c0.2-0.3,0.5-0.7,0.7-1C2639.8,1380.8,2639.6,1381.2,2639.3,1381.5z"/>
		<path class="st11" d="M2063.3,1380.5c0.2-0.3,0.5-0.7,0.7-1C2063.8,1379.8,2063.5,1380.2,2063.3,1380.5z"/>
		<path class="st15" d="M2640.4,1378.7c0.2-0.4,0.5-0.8,0.7-1.2C2640.9,1377.9,2640.6,1378.3,2640.4,1378.7z"/>
		<path class="st11" d="M2064.3,1377.5c0.2-0.3,0.5-0.7,0.7-1C2064.8,1376.9,2064.5,1377.2,2064.3,1377.5z"/>
		<path class="st5" d="M1760.2,1663.5c0.3,0.2,0.6,0.5,1,0.7C1760.9,1663.9,1760.6,1663.7,1760.2,1663.5z"/>
		<path class="st8" d="M2139.4,1403.4c66.2,0.1,132.5,4,198.7-1.7c3.6-0.3,5.8,1,6.1,4.8c-2.1,1.1-5.6,1.9-6,3.4
			c-4.6,18.3-12.1,36.7-12.1,55.2c-0.1,25.9-19.8,30.3-35.5,35.4c-16.8,5.4-36,3.5-54.1,4.7c-7.1,0.4-14.2,0.8-21.3,1.2
			c-16,0.1-31.9,0.1-47.9,0.2c-4-0.1-8-0.2-12.1-0.3c17.8,1.3,17.5-2.6,12.4-20.1c-8.3-28.1-19.5-54.9-28.4-82.7L2139.4,1403.4z"/>
		<path class="st27" d="M2506.9,1529.6c-2.2-0.4-4.5-0.7-6.7-1.1c-1-1.2-1.8-3-3.1-3.4c-43.2-11.3-86.8-15.1-130.9-5.6
			c-2.7-0.3-5.4-0.6-8.2-0.9c1.4-0.4,2.8-0.7,4.2-1.1c16.1-3.7,32.1-8.7,48.5-10.8c32.4-4.2,63.4,4.7,94.3,13.1
			c-2.4,6.2,18.1-8.2,6,6.7c1.1,0.6,2.1,1.7,3.3,1.8c3.4,0.4,6.9,0.4,10.3,0.6c-3.6,0.2-7.1,0.4-10.7,0.5
			C2511.6,1529.5,2509.3,1529.5,2506.9,1529.6z"/>
		<path class="st28" d="M2136.2,1653.6c-0.6,0-1.2,0-1.8,0c0.1-38.2-0.4-76.5,0.4-114.7c0.4-19.1-14.2-8.8-21.5-12.5
			c0-10.8-8.6-1.8-11.8-5.2c2.4-4.2,16.1-2,7.3-12.7c5.8-4.4,11.7-8.7,17.5-13.1c0.3,0.4,0.6,0.7,0.9,1.1c0,4.7-1.3,10.3,6.1,11
			c-3.9,4.8,0.8,6.4,3.3,8.8c0.6,0.7,1.2,1.4,1.8,2.1c0.4,2.7,0.8,5.4,1.2,8.1c-8.9,25.6-3.1,52.1-4,78.1
			C2134.9,1620.9,2135.9,1637.3,2136.2,1653.6z"/>
		<path class="st29" d="M2366.2,1519.5c44.1-9.4,87.7-5.6,130.9,5.6c1.2,0.3,2,2.2,3.1,3.4c-0.3,0-0.6,0-0.9-0.1
			c-1.4-0.3-2.8-0.5-4.3-0.8c-34.4-3.5-68.7-8.5-103.4-6.2c-1.5,0.1-2.9,0.7-4.3,1c-1.3,1.2-2.6,2.5-3.8,3.7
			C2379.4,1519.4,2372.1,1521.3,2366.2,1519.5z"/>
		<path class="st30" d="M2215.2,1506.4c7.1-0.4,14.2-0.8,21.3-1.2c19.9,0.1,39.8,0.2,59.7,0.3c4.4,0,8.8,0,13.2,0
			c7.6,0.1,15.2,0.1,22.8,0.2c-1.7,3.3-3.3,6.5-5,9.8c-12.2-10.9-27.9-6.9-41.7-8.3C2262.2,1504.9,2238.7,1506.5,2215.2,1506.4z"/>
		<path class="st31" d="M2139.4,1526.5c-0.4-2.7-0.8-5.4-1.2-8.1c-1-13.5,8.4-12.2,17-12.1c4,0.1,8,0.2,12.1,0.3
			C2156.5,1511,2144.8,1514.4,2139.4,1526.5z"/>
		<path class="st32" d="M2403.3,1655.4c0.6-26.4,1.3-52.7,1.9-79.1c0.1-2,0.1-3.9,0.2-5.9c1,6.3,2,12.6,3,19
			c-0.4,22.3-0.7,44.7-1.1,67C2405.9,1656.1,2404.6,1655.8,2403.3,1655.4z"/>
		<path class="st33" d="M2408.3,1589.5c-1-6.3-2-12.6-3-19c0-18.4-13.8-30-21.9-44.4c1.3-1.2,2.6-2.5,3.8-3.7
			c-3.6,6.1,2,9.3,4.7,12.8C2404.2,1551.4,2413.4,1568.2,2408.3,1589.5z"/>
		<path class="st29" d="M2362.2,1517.5c-1.4,0.4-2.8,0.7-4.2,1.1c-4.6-0.4-9.2-0.8-13.8-1.1c-3-0.3-6-0.7-9-1l0,0
			c3.3-1.3,6.7-2.7,10-4c3.3,1,6.7,2,10,3C2357.6,1516.1,2359.9,1516.8,2362.2,1517.5z"/>
		<path class="st7" d="M2335.3,1516.4c3,0.3,6,0.7,9,1C2341.3,1517.1,2338.3,1516.8,2335.3,1516.4z"/>
		<path class="st34" d="M2362.2,1517.5c-2.3-0.7-4.6-1.4-6.9-2.1c11.5-13.1,28.4-12,43.1-14.9c16.8-3.3,34.5-5,51.5-3.7
			c20.3,1.5,38.6,16,60.3,11.1c1.3-0.3,2.5-0.7,3.8-1c-1.1-1.8-2.1-5.2-3.2-5.3c-9.9-0.2-4.5-5.9-3.2-9.3
			c2.4-6.5,10.9-15.9-6.3-11.1c-0.1,0-0.9-2.1-1.3-3.2c10.4-2.3,12-6.8,5.6-15.8c-4.4-6.2,11.2-16.1-2.6-22.1
			c0.7-0.8,1.3-1.8,2.1-2.3c4.7-2.3,9.5-4.4,14.3-6.6c-3.9-1.6-7.9-3-11.7-4.8c-1.1-0.5-2.3-2.6-2-3.6c1-4.2,16,2,7.3-9.8
			c7.2-4.3,2.7-18.7,15.7-17.9c-0.2-0.7-0.2-1.8-0.6-1.9c-3.3-1.1-6.7-2-10.1-3c5.8-0.5,11.6-1.1,17.4-1.6c0,0.7-0.1,1.3-0.1,2
			c-13.7,17,7,25,12.6,31.9c14.5,18,0.2,14-8.5,15.9c-1.3,0-2.7,0-4,0.1c-4.1-8.4,9.4-23.5-4.6-25.1c-8.6-1-6.1,15.5-7.3,24.5
			c-0.1,0.5,0.1,1,0.1,1.5c0,0.8,0,1.6,0,2.4c-9,18.2-4,37.1-3.1,55.9c-0.6,4.3-1.2,8.6-1.8,12.9c-2.6,1.6-5.3,3.2-7.9,4.8
			c0.9,0.8,1.8,2.2,2.6,2.2c13.3-0.2,26.6-0.6,40-0.9c4.1-0.3,8.2-0.7,12.3-1c0.9,0,1.9,0.1,2.8,0.1c0,0.7,0,1.3,0,2
			c-2.5,0-5.7-1-7.3,0.1c-9,6.4-28.4-13.3-29.7,11.9c-0.3,0.3-0.7,0.7-1,1c-7.8-0.3-15.5-0.5-23.3-0.8c2.3-0.1,4.7-0.1,7-0.2
			c3.6-0.2,7.1-0.4,10.7-0.5c-3.5-0.2-6.9-0.2-10.3-0.6c-1.1-0.1-2.2-1.2-3.3-1.8c12.1-14.9-8.4-0.5-6-6.7
			c-30.9-8.4-61.9-17.2-94.3-13.1C2394.3,1508.8,2378.4,1513.8,2362.2,1517.5z"/>
		<path class="st35" d="M2530.3,1530.4c0.3-0.3,0.7-0.7,1-1c2.8-2,5.6-5.6,8.5-5.8c21.5-1.5,43-2.3,64.5-3.3c6,0.3,12,0.7,18,1
			c3.3,1.7,6.5,3.5,9.8,5.2c1.7,1.3,3.4,2.5,5.1,3.8c0.3,0.3,0.7,0.5,1,0.8c0.7,0.4,1.3,0.8,2,1.2c0.4,0.3,0.7,0.6,1.1,0.9
			c0,0,0.1,0.1,0.1,0.1c0.3,0.2,0.5,0.5,0.8,0.7c0.3,0.1,0.6,0.3,0.9,0.4c0.4,0.3,0.8,0.6,1.2,0.9l0,0c0.3,0.2,0.6,0.5,0.9,0.7
			c0.3,0.2,0.6,0.3,0.9,0.4c0.4,0.3,0.8,0.6,1.2,1c0,0,0,0,0,0c0.3,0.3,0.6,0.5,1,0.8c0.7,0.4,1.3,0.8,2,1.2
			c0.4,0.3,0.7,0.6,1.1,0.9c0,0,0.1,0,0.1,0c0.3,0.2,0.5,0.5,0.8,0.7c0.3,0.2,0.6,0.3,0.9,0.5c5.4,4.6,10.9,9.2,16.3,13.7
			c-38.2-10.6-77-18.8-116.4-23.4C2545.5,1531.1,2537.9,1530.9,2530.3,1530.4z"/>
		<path class="st36" d="M2669.4,1555.3c-5.4-4.6-10.9-9.2-16.3-13.7c-5.9-10.5-19-15.8-18.2-31.5c1-19.8-1.6-39.8-2.6-59.7
			c-0.7-15.3-1.3-30.7-2-46c4.5-0.1,4.4,2.4,4.6,6.1c1.7,33.9,2.7,67.9,6,101.7c1.7,17,16.2,27.5,27.5,39.1c1.3,1.1,2.6,2.1,3.9,3.2
			c0.3,1.3,0.6,2.6,0.9,4C2671.9,1557.4,2670.7,1556.4,2669.4,1555.3z"/>
		<path class="st27" d="M2495,1527.6c1.4,0.3,2.8,0.5,4.3,0.8C2497.8,1528.1,2496.4,1527.9,2495,1527.6z"/>
		<path class="st37" d="M2022.4,1531.6c-6-0.1-12-0.2-18-0.2c2.2-9.5-4.2-10.9-11-10.8c-23,0.5-46,1.4-69,2.1
			c-0.1-0.2-0.2-0.3-0.3-0.5c7.4-0.9,14.8-1.8,22.3-2.7c19.9-2,39.8-4,59.7-6c0.1-1.7,0.2-3.4,0.3-5.1c0.3,2.7,0.6,5.4,0.8,8.1
			c0,0,0,0,0,0c3.1,1.4,2,10.7,9,4.9c2,0,4,0.1,6,0.1c2.2-0.3,4.5-0.4,6.6-1c6.2-1.7,9.7-9.3,18.2-6.8c6.9,2.1,15.1,4.1,21.8,2.5
			c11.4-2.8,19.7,7.5,30.4,5.2l0,0.3c-25.6,2.6-51.2,5.1-76.9,7.8c-2,0.2-3.9,1-5.9,1.5C2018.5,1531.2,2020.5,1531.4,2022.4,1531.6z
			"/>
		<path class="st38" d="M1924.4,1522.7c23-0.7,46-1.6,69-2.1c6.8-0.1,13.2,1.2,11,10.8c-47.9-11.4-93.3-6.1-135.9,19.4
			c-1.9,1.2-4.2,1.8-6.2,2.7C1877.9,1533,1900.6,1526.6,1924.4,1522.7z"/>
		<path class="st39" d="M1856.1,1563.3c3.3-10.2,7-20.4,9.8-30.7c10.1-37.4,12.6-75.5,11.6-114c-0.1-3.7,1.1-7.4,1.8-11.1
			c0.6,1.3,1.3,2.7,1.9,4c0,0.7,0,1.5,0,2.2c0.4,3.9,0.8,7.8,1.1,11.7c-4.6,40.2,2.4,82-17,120c-2,3.4-4,6.7-5.9,10.1
			C1858.3,1558.1,1857.2,1560.7,1856.1,1563.3z"/>
		<path class="st10" d="M1859.3,1555.5c2-3.4,4-6.7,5.9-10.1c0,0,0,0,0,0c0.3-0.3,0.6-0.7,0.9-1c0,0,0,0,0,0
			c0.3-0.3,0.6-0.6,0.9-0.9c12.2-25.4,36.4-18.6,57-21.2c0.1,0.2,0.2,0.3,0.3,0.5c-23.8,4-46.5,10.3-62.1,30.8
			C1861.3,1554.1,1860.3,1554.8,1859.3,1555.5z"/>
		<path class="st40" d="M2022.4,1531.6c-1.9-0.2-3.9-0.4-5.8-0.6c2-0.5,3.9-1.3,5.9-1.5c25.6-2.6,51.2-5.2,76.9-7.8
			c0.7-0.1,1.4-0.3,2.1-0.4c3.2,3.4,11.9-5.6,11.8,5.2c-0.7,0-1.3,0-2,0.1c-19.1-2.2-38.1-1.2-57.1,1.9
			C2043.6,1529.4,2033,1530.5,2022.4,1531.6z"/>
		<path class="st41" d="M2054.2,1528.3c18.9-3.1,38-4.1,57.1-1.9C2092.3,1527.1,2073.2,1527.7,2054.2,1528.3z"/>
		<path class="st2" d="M2497.8,1677.6c-1.6-1.3-3-2.5-4.4-3.7c0.5-0.3,1.5-1,1.6-0.8c3.7,3.9,8.3-6.7,11.6,0.8
			C2503.8,1675.1,2501,1676.3,2497.8,1677.6z"/>
		<path class="st2" d="M2484.1,1741.7c1.5,0.8,2.6,1.4,3.6,1.9c-1.3,0.5-2.5,1.4-3.8,1.5c-0.8,0.1-1.7-1-2.6-1.5
			C2482.2,1743,2483.1,1742.3,2484.1,1741.7z"/>
		<path class="st2" d="M2477.2,1751.7c-1.1-0.5-2.1-1-3.2-1.5c0.9-0.5,1.9-1.4,2.7-1.3c1.3,0.2,2.4,1.1,3.6,1.6
			C2479.4,1750.9,2478.4,1751.3,2477.2,1751.7z"/>
		<path class="st2" d="M2497.2,1738.9c-1.5,0.5-2.3,1-2.8,0.8c-1-0.4-1.8-1.2-2.6-1.9c0.6-0.4,1.4-1.1,1.9-1
			C2494.7,1737.1,2495.5,1737.9,2497.2,1738.9z"/>
		<path class="st25" d="M2514.5,1750.6c-5.8,0.2-11.5,0.4-17.3,0.7c0-0.3,0.1-0.5,0.1-0.8c1,0,1.9-0.1,2.9-0.1
			C2504.9,1750.4,2509.7,1750.5,2514.5,1750.6z"/>
		<path class="st2" d="M2494.7,1667.4c-0.5,0.3-0.7,0.7-1.1,0.7c-0.2,0-0.6-0.3-0.6-0.5c0-0.4,0.3-0.7,0.4-1.1
			C2493.8,1666.8,2494.2,1667,2494.7,1667.4z"/>
		<path class="st25" d="M2529.3,1750.5c-2,0-4,0-6-0.1C2525.3,1750.5,2527.3,1750.5,2529.3,1750.5z"/>
		<path class="st2" d="M2477.8,1744.3c0.1,0,0.3,0,0.4,0c-0.1,0.2-0.2,0.4-0.2,0.6c-0.1-0.1-0.3-0.1-0.3-0.2
			C2477.6,1744.6,2477.7,1744.4,2477.8,1744.3z"/>
		<path class="st2" d="M2500.2,1750.4c-1,0-1.9,0.1-2.9,0.1C2498.3,1750.4,2499.2,1750.4,2500.2,1750.4z"/>
		<path class="st42" d="M2332.2,1505.7c-7.6-0.1-15.2-0.1-22.8-0.2c-4.4,0-8.8,0-13.2,0c-19.9-0.1-39.8-0.2-59.7-0.3
			c18.1-1.3,37.3,0.7,54.1-4.7c15.7-5.1,35.4-9.5,35.5-35.4c0.1-18.4,7.6-36.8,12.1-55.2c0.4-1.5,3.9-2.3,6-3.4
			c5.5,29,6.9,58.1-4.9,85.8C2337.7,1496.3,2350.1,1510.6,2332.2,1505.7z"/>
		<path class="st8" d="M2127.2,1496.5c-0.3-0.4-0.6-0.7-0.9-1.1c-0.3-4.2-21.5,8-7.1-13.4c9.4-13.9,6.1-45.3,11.1-68.6
			c1.5-5.9-2.6-3.1-4.8-3c-16.4,1-32.7,2.1-49.1,3.2c-0.1-0.1-0.2-0.3-0.3-0.4c-0.2-9.8-5.7-12.8-14.6-11.6l-0.2-0.2
			c4.6-5.9,10-1.4,15.1-1.2c21.1,0.9,42.6,8.8,63.1-3c0,1,0,2,0,3.1c0,1,0,2,0,3c0,0-0.1,0.1-0.1,0.1c0.9,14.1-8.1,25.5-10.9,38.1
			C2124.4,1459.1,2127.2,1478.1,2127.2,1496.5z"/>
		<path class="st18" d="M2149.3,1399.5c34.5-2,68.9-4.8,103.4-5.8c29.5-0.8,59,0.4,88.6,0.8c2.6,2.7,5.2,5.4,7.8,8.2
			c-4.8-1-9.5-2.8-14.3-2.8C2273,1399.5,2211.1,1399.5,2149.3,1399.5z"/>
		<path class="st18" d="M2141.3,1400.4c2.7-0.3,5.3-0.7,8-1C2146.6,1399.8,2144,1400.1,2141.3,1400.4z"/>
		<path class="st18" d="M2341.3,1391.4c-0.3-0.3-0.6-0.7-0.9-1C2340.7,1390.8,2341,1391.1,2341.3,1391.4z"/>
		<path class="st43" d="M1881.2,1413.7c0-0.7,0-1.5,0-2.2c17.6,3,21.5,18.4,27.7,31.4c5.7,11.9,14.3,17.5,27.6,20.2
			c14.9,3-10.4,6.5-1.1,11.8c1.6,0.9,2.4,3.4,3.5,5.1c1.6-1.3,4.6-2.7,4.5-3.7c-1.7-12.8,9-11.6,15.7-13.2
			c25.4-6.2,26.5-29.9,35.7-47.9c0.9-1.7,2.3-3.2,3.5-4.7c1.4,3.3,4.3,6.8,3.9,10c-2.5,25-4.2,49.7-23.3,70
			c-12.7,13.5-26.5,17.7-44.2,18.6c-12.9,0.7-5-15.1-14.9-14.4c1.4-13.3-7-23.3-12-34.3c-5.9-12.9-13-25.3-19.6-37.9c-2-2-4-4-5.9-6
			c-0.1-0.3-0.2-0.5-0.2-0.8c-0.3-0.4-0.6-0.8-0.8-1.2C1881.3,1414.2,1881.2,1414,1881.2,1413.7z"/>
		<path class="st44" d="M1888.3,1422.4c6.6,12.6,13.6,25,19.6,37.9c5,11,13.4,21,12,34.3c9.9-0.7,2,15.1,14.9,14.4
			c17.7-0.9,31.5-5.1,44.2-18.6c19-20.3,20.7-45,23.3-70c0.3-3.2-2.5-6.6-3.9-10c0-0.7,0-1.3,0-2c0.6,0,1.3,0,1.9,0
			c0.1,0.3,0.1,0.6,0.1,0.9c0.3,0.7,0.6,1.4,0.9,2.1c0.4,0.7,0.7,1.4,1.1,2c0.4,1,0.8,1.9,1.2,2.9c0.3,0.3,0.6,0.7,0.9,1
			c0.1,0.3,0.1,0.6,0.1,0.9c0.3,0.7,0.6,1.4,0.9,2.2c-0.7,1.3-1.3,2.6-2,4c0.3,0.3,0.6,0.7,0.9,1c0,0.7,0,1.3,0.1,2
			c0.3,0.4,0.6,0.7,0.8,1.1c0,0.7,0.1,1.3,0.1,2c0.3,0.3,0.6,0.7,0.9,1c0,0.3,0.1,0.6,0.1,1c0.3,0.7,0.6,1.3,1,2c0,1.3,0,2.7,0,4
			c-0.3,2-0.7,4-1,6.1c-0.6,5.6-0.5,11.4-2.1,16.7c-5,17.2,3.2,41.5-20.5,49c-16,5.1-34,3.7-51,6c-11.5,1.5-17.4-3.2-17.8-14.1
			c-0.2-4.8-2-7.3-5.5-9.6c-0.3-0.3-0.7-0.7-1-1c19.6,0.5,2.3-9,1.8-10.6C1903.6,1461.1,1895.8,1441.8,1888.3,1422.4z"/>
		<path class="st43" d="M2000.2,1408.5c-0.6,0-1.3,0-1.9,0c0-0.7,0-1.3,0-2c0.3,0,0.7,0,1,0
			C1999.6,1407.1,1999.9,1407.8,2000.2,1408.5z"/>
		<path class="st45" d="M2535.2,1438.3c1.3,0,2.7,0,4-0.1c15.7,0,31.4,0,47.1,0c3.3,0.1,6.5,0.1,9.8,0.2c2.7,0.3,5.4,0.5,8.1,0.8
			c1.7,0,3.4,0.1,5.1,0.1c0.3,0.1,0.6,0.1,0.9,0.2c1,0.2,2.1,0.5,3.1,0.7c0.3,0.1,0.5,0.2,0.8,0.3c-3.3,0.3-6.6,0.6-9.8,1
			c-20.9-0.1-41.8-0.2-62.7-0.3c-5.1-0.6-10.1-1.2-15.2-1.8l-0.1,0c2.7-0.3,5.4-0.7,8-1C2534.7,1438.5,2535,1438.4,2535.2,1438.3z"
			/>
		<path class="st46" d="M2630.3,1404.4c0.7,15.3,1.2,30.7,2,46c1,19.9,3.6,39.9,2.6,59.7c-0.8,15.7,12.4,21,18.2,31.5
			c-0.3-0.2-0.6-0.3-0.9-0.5c-0.3-0.2-0.5-0.5-0.8-0.7c0,0-0.1,0-0.1,0c-0.4-0.3-0.7-0.6-1.1-0.9c-0.7-0.4-1.3-0.8-2-1.2
			c-0.3-0.3-0.6-0.5-1-0.8c0,0,0,0,0,0c-0.4-0.3-0.8-0.6-1.2-1c-0.3-0.1-0.6-0.2-0.9-0.4c-0.3-0.2-0.6-0.5-0.9-0.7c0,0,0,0,0,0
			c-0.4-0.3-0.8-0.6-1.2-0.9c-0.3-0.1-0.6-0.3-0.9-0.4c-0.3-0.2-0.5-0.5-0.8-0.7c0,0-0.1-0.1-0.1-0.1c-0.4-0.3-0.7-0.6-1.1-0.9
			c-0.7-0.4-1.3-0.8-2-1.2c-0.3-0.3-0.7-0.5-1-0.8c-1.7-1.3-3.4-2.5-5.1-3.8c-0.2-1.4-0.1-3.7-0.8-4c-4.2-1.8-8.6-3.1-12.9-4.5
			c0.3,0.7,0.7,1.4,1,2.1c-3.7-0.9-7.4-1.8-11.1-2.7c0.6-1.4,1.1-2.8,1.7-4.2c-3.7,0.6-7.4,1.8-11.1,1.8
			c-26.5,0.2-51.3-6.4-74.5-19.1c-0.9-0.5-2.7,0.9-4.1,1.4c-0.8-18.7-5.9-37.7,3.1-55.9c4.2,0,8.4,0,12.6,0c0.1,1.8,0.4,3.7,0.1,5.5
			c-3.4,21.9,1.1,41.9,23.3,49.8c13.8,4.9,30.1,3.9,45.3,3.5c15.2-0.4,17.1-12.6,11.5-22.4c-6.8-11.9-7.1-23.1-4.9-35.5
			c3.6,0.6,7.3,1.1,10.9,1.7c3.5,20.3,8.1,40.6,2.2,61.3c-0.4,1.4-7.7,13.1,3.6,3.4c1.5,2.9,3,5.7,4.5,8.6c0.2-0.5,0.5-0.9,0.4-1.4
			c-1.9-24.9-3.8-49.8-5.7-74.7c0.7-11,1.3-22,2-33c-0.7-2-1.4-3.9-2.1-5.9C2628.2,1403.2,2629.3,1403.8,2630.3,1404.4z"/>
		<path class="st46" d="M2610.2,1439.6c-0.3,0-0.6-0.1-0.9-0.2c2.7-3,4.8-7.2,8.2-8.9c8.7-4.4-6.8-11,2-16c1.9-1.1,3.4-4.1,6.7-4
			c0.7,0.6,1.4,1.3,2.1,1.9c-2,9.3-4,18.7-5.9,28c-2.7,0.1-5.5,0.1-8.2,0.2c-0.3-0.1-0.5-0.2-0.8-0.3
			C2612.3,1440.1,2611.2,1439.8,2610.2,1439.6z"/>
		<path class="st47" d="M2622.3,1440.4c2-9.3,4-18.7,5.9-28c0,0,0,0,0,0c0.3-0.4,0.6-0.7,0.9-1.1c0-0.9,0.1-1.9,0.1-2.8
			c-0.7,11-1.3,22-2,33c0,0,0,0,0,0c-0.3,0-0.6,0-1,0C2625,1441.1,2623.6,1440.8,2622.3,1440.4z"/>
		<path class="st8" d="M2604.2,1439.3c-2.7-0.3-5.4-0.5-8.1-0.8C2598.8,1438.8,2601.5,1439.1,2604.2,1439.3z"/>
		<path class="st8" d="M2628.2,1412.4c-0.7-0.6-1.4-1.3-2.1-1.9c0.7,0.3,1.4,0.6,2.1,0.9C2628.2,1411.7,2628.2,1412.1,2628.2,1412.4
			C2628.2,1412.4,2628.2,1412.4,2628.2,1412.4z"/>
		<path class="st46" d="M2628.2,1412.4c0-0.4,0-0.7,0-1.1c0.3,0,0.6,0,0.9-0.1C2628.8,1411.7,2628.5,1412,2628.2,1412.4z"/>
		<path class="st8" d="M2059.2,1391.5c-2.1,3.8-4.1,7.6-6.2,11.4c2.7-0.5,5.4-1,8.1-1.4c0,0,0.2,0.2,0.2,0.2
			c-4.2,15.2,7.2,10.9,14.6,11.6c0.1,0.1,0.2,0.3,0.3,0.4c-8.7-0.1-17.4-0.2-26.1-0.3c-2.3-0.2-4.7-0.5-7-0.7
			c-1.3-0.1-2.6-0.2-3.8-0.3c11.8,0.9,9.1-10.1,12.9-15.8c2-2.7,4-5.3,6.1-8c0.3,0.3,0.6,0.6,0.9,0.9
			C2059.3,1390.1,2059.2,1390.8,2059.2,1391.5z"/>
		<path class="st19" d="M2050.3,1413.3c8.7,0.1,17.4,0.2,26.1,0.3c16.4-1.1,32.7-2.2,49.1-3.2c2.2-0.1,6.3-2.9,4.8,3
			c-8.1,4-9.2,14.2-18.8,18.1c-16.1,6.6-34.1,15.4-40.9,31.3c-8.8,20.8-24,34.4-39.7,48.3c-2.3,2-6.1,2.5-9.2,3.4
			c-0.2,0.1-1.9-2.7-1.6-3c6.6-7.4,3.3-15.9,2.3-23.9c-2.9-23.7,0.8-48.8-14.1-70.1c-2-1.3-4-2.7-6-4c-0.4-0.7-0.7-1.4-1.1-2
			c-0.3-0.7-0.6-1.4-0.9-2.1c0-0.3-0.1-0.6-0.1-0.9c-0.3-0.7-0.6-1.4-0.9-2c0,0,0.1,0,0.1,0c0.3-0.3,0.6-0.6,0.9-0.9
			c13,2.3,26.1,4.5,39.1,6.8c1.3,0.1,2.6,0.2,3.8,0.3C2045.6,1412.8,2047.9,1413.1,2050.3,1413.3z"/>
		<path class="st11" d="M2058.4,1388.5c-2,2.7-4,5.3-6.1,8c-1.1-0.2-2.3-0.5-3.4-0.7c0.6-1.4,0.9-3.5,2-4.2
			C2053.1,1390.2,2055.8,1389.5,2058.4,1388.5z"/>
		<path class="st11" d="M2000.3,1405.5c-0.3,0.3-0.6,0.6-0.9,0.9C1999.7,1406.1,2000,1405.8,2000.3,1405.5z"/>
		<path class="st40" d="M2127.2,1496.5c0.1-18.4-2.7-37.4,1.2-54.9c2.8-12.5,11.8-23.9,10.9-38.1c8.9,27.7,20.1,54.6,28.4,82.7
			c5.2,17.5,5.4,21.4-12.4,20.1c-8.6-0.1-18.1-1.3-17,12.1c-0.6-0.7-1.2-1.4-1.8-2.1c-0.2-1.3-0.4-2.6-0.5-4
			c-0.2-0.4-0.4-0.8-0.6-1.2c-0.1-0.6-0.1-1.2-0.2-1.8c-0.3-0.3-0.6-0.6-0.9-1l0,0c-0.3-0.3-0.7-0.6-1-0.9l-0.1,0
			C2125.9,1506.8,2127.2,1501.3,2127.2,1496.5z"/>
		<path class="st41" d="M2008.3,1417.5c14.9,21.3,11.2,46.4,14.1,70.1c1,8,4.3,16.5-2.3,23.9c-0.3,0.3,1.3,3.1,1.6,3
			c3.2-0.9,6.9-1.3,9.2-3.4c15.8-13.9,30.9-27.5,39.7-48.3c6.8-16,24.7-24.7,40.9-31.3c9.6-3.9,10.7-14.1,18.8-18.1
			c-5,23.3-1.8,54.7-11.1,68.6c-14.4,21.4,6.9,9.2,7.1,13.4c-5.8,4.4-11.7,8.7-17.5,13.1c8.8,10.7-4.9,8.4-7.3,12.7
			c-0.7,0.1-1.4,0.3-2.1,0.4c0,0,0-0.3,0-0.3c1-8.6-9.3,0.3-9.6-6.3c-0.3-6.9,3.6-12.5-10.5-13.9c-23.8-2.3-40.1,7.5-56.9,20.3
			c-2,0-4-0.1-6-0.1C2019.8,1486.2,2020.1,1451.4,2008.3,1417.5z"/>
		<path class="st41" d="M2135.9,1512.3c0.2,1.3,0.4,2.6,0.5,4c-2.4-2.4-7.1-4-3.3-8.8c0,0,0.1,0,0.1,0c0.3,0.3,0.7,0.6,1,0.9
			c0,0,0,0,0,0c0.3,0.3,0.6,0.6,0.9,1c0.1,0.6,0.1,1.2,0.2,1.8C2135.6,1511.6,2135.8,1511.9,2135.9,1512.3z"/>
		<path class="st8" d="M2296.2,1505.5c4.4,0,8.8,0,13.2,0C2305,1505.5,2300.6,1505.5,2296.2,1505.5z"/>
		<path class="st48" d="M2520.3,1497.5c1.4-0.5,3.3-1.9,4.1-1.4c23.2,12.7,48,19.4,74.5,19.1c3.7,0,7.4-1.2,11.1-1.8
			c-0.6,1.4-1.1,2.8-1.7,4.2c-13.3-0.7-26.6-1.4-40-2.1c-0.9,0-1.9-0.1-2.8-0.1c-4-0.3-8.1-0.6-12.1-0.9
			c-11.6-1.4-23.2-2.8-34.8-4.2C2519.1,1506,2519.7,1501.8,2520.3,1497.5z"/>
		<path class="st49" d="M2535.2,1438.3c-0.3,0.1-0.6,0.1-0.9,0.2c-2.7,0.3-5.4,0.7-8,1c0,0,0.1,0,0.1,0c-1-0.1-2-0.2-2.9-0.3
			c0-0.5-0.2-1-0.1-1.5c1.3-9-1.3-25.5,7.3-24.5C2544.6,1414.8,2531.2,1429.9,2535.2,1438.3z"/>
		<path class="st50" d="M2604.3,1520.4c-21.5,1-43,1.8-64.5,3.3c-3,0.2-5.7,3.8-8.5,5.8c1.3-25.1,20.7-5.4,29.7-11.9
			c1.6-1.2,4.8-0.1,7.3-0.1C2580.3,1518.4,2592.3,1519.4,2604.3,1520.4z"/>
		<path class="st51" d="M2604.3,1520.4c-12-1-24-2-36-3c0-0.7,0-1.3,0-2c13.3,0.7,26.6,1.4,40,2.1c3.7,0.9,7.4,1.8,11.1,2.7
			c1,0.4,1.9,0.8,2.9,1.2C2616.3,1521.1,2610.3,1520.8,2604.3,1520.4z"/>
		<path class="st27" d="M2518.5,1510.3c11.6,1.4,23.2,2.8,34.8,4.2c0,0.6-0.1,1.3-0.1,1.9c-13.3,0.3-26.6,0.7-40,0.9
			c-0.9,0-1.8-1.4-2.6-2.2C2513.2,1513.5,2515.9,1511.9,2518.5,1510.3z"/>
		<path class="st8" d="M2523.4,1439.2c1,0.1,2,0.2,2.9,0.3c5.1,0.6,10.1,1.2,15.2,1.8c-1.8,0.1-3.7,0.2-5.5,0.3c-4.2,0-8.4,0-12.6,0
			C2523.4,1440.8,2523.4,1440,2523.4,1439.2z"/>
		<path class="st51" d="M2553.2,1516.4c0-0.6,0.1-1.3,0.1-1.9c4,0.3,8.1,0.6,12.1,0.9C2561.4,1515.7,2557.3,1516.1,2553.2,1516.4z"
			/>
		<path class="st52" d="M2622.3,1521.5c-1-0.4-1.9-0.8-2.9-1.2c-0.3-0.7-0.7-1.4-1-2.1c4.3,1.5,8.7,2.7,12.9,4.5
			c0.7,0.3,0.6,2.6,0.8,4C2628.8,1525,2625.5,1523.2,2622.3,1521.5z"/>
		<path class="st36" d="M2637.2,1530.5c0.3,0.3,0.7,0.5,1,0.8C2637.9,1531,2637.5,1530.7,2637.2,1530.5z"/>
		<path class="st36" d="M2640.2,1532.5c0.4,0.3,0.7,0.6,1.1,0.9C2640.9,1533.1,2640.6,1532.8,2640.2,1532.5z"/>
		<path class="st36" d="M2641.4,1533.4c0.3,0.2,0.5,0.5,0.8,0.7C2641.9,1533.9,2641.7,1533.6,2641.4,1533.4z"/>
		<path class="st36" d="M2644.3,1535.4c0.3,0.2,0.6,0.5,0.9,0.7C2644.9,1535.9,2644.6,1535.7,2644.3,1535.4z"/>
		<path class="st36" d="M2646.1,1536.5c0.4,0.3,0.8,0.6,1.2,1C2646.9,1537.2,2646.5,1536.8,2646.1,1536.5z"/>
		<path class="st36" d="M2647.3,1537.5c0.3,0.3,0.6,0.5,1,0.8C2647.9,1538,2647.6,1537.7,2647.3,1537.5z"/>
		<path class="st36" d="M2650.2,1539.5c0.4,0.3,0.7,0.6,1.1,0.9C2650.9,1540.1,2650.6,1539.8,2650.2,1539.5z"/>
		<path class="st36" d="M2651.4,1540.4c0.3,0.2,0.5,0.5,0.8,0.7C2651.9,1540.9,2651.6,1540.7,2651.4,1540.4z"/>
		<path class="st36" d="M2643.1,1534.5c0.4,0.3,0.8,0.6,1.2,0.9C2643.9,1535.1,2643.5,1534.8,2643.1,1534.5z"/>
		<path class="st53" d="M1908.4,1491.4c0.3,0.3,0.7,0.7,1,1c-0.3,0.8-0.8,1.6-0.8,2.3c0.4,3.2,1.3,6.4,1.4,9.6
			c0.1,2.8,6.4,4.4,1.8,7.2c-1.4,0.9-5.2-2.3-7.9-3.4c-0.2-0.1-1.6,1.8-1.4,2.3c0.4,0.8,1.6,1.4,2.5,1.9c11.4,6.6,23.7,7.5,36.4,6
			c1.7,0.4,3.3,0.7,5,1.1c-7.4,0.9-14.8,1.8-22.3,2.7c-20.7,2.6-44.9-4.2-57,21.2c-0.3,0.3-0.6,0.6-0.9,0.9c0,0,0,0,0,0
			c-0.3,0.3-0.6,0.7-0.9,1c0,0,0,0,0,0c19.4-38.1,12.4-79.9,17-120c4.7,29.6,0,58.9-3,88.2c-0.1,1.4,0.5,2.9,0.8,4.4
			c-4.2-11.6,24.6-1.4,12.3-18.7c-1.2-1.7-0.1-5.4,0.7-7.9c0.1-0.5,3.3-0.2,5-0.3c0.7,0,1.5-0.1,2.2-0.5c0.2-0.1,0-1.3-0.3-1.8
			c-13.1-20.3-7-45.1-15.6-66.5C1896.8,1443.9,1902.2,1467.8,1908.4,1491.4z"/>
		<path class="st54" d="M2008.3,1417.5c11.8,33.9,11.5,68.8,8,103.9c-7,5.8-5.9-3.5-9-4.9l0,0c-0.3-2.7-0.6-5.4-0.8-8.1
			c-0.1-0.3-0.1-0.6-0.2-1c0-1,0-2-0.1-2.9c0-0.4,0-0.7,0-1.1c0.1-1.4,0.1-2.7,0.2-4.1c0.3-1,0.5-1.9,0.8-2.9
			c-0.3-2.4-0.5-4.8-0.8-7.1c0-0.2,0-0.4-0.1-0.7c0.3-0.4,0.6-0.8,1-1.2l0,0c0.4-3,0.7-6.1,1.1-9.1c-0.1-0.6-0.1-1.3-0.2-1.9
			c-0.3-2.4-0.5-4.7-0.8-7.1c0-2.6,0-5.2,0-7.8c0-1,0-2.1,0-3.1c0-1.3-0.1-2.6-0.1-4c-0.3-1-0.6-2-0.9-3c0-1.3,0-2.6,0-3.9
			c0.3-3,0.6-6,0.9-9c0-1.3,0-2.7,0-4c-0.3-0.7-0.6-1.3-1-2c0-0.3-0.1-0.6-0.1-1c-0.3-0.3-0.6-0.7-0.9-1c0-0.7-0.1-1.3-0.1-2
			c-0.3-0.4-0.6-0.7-0.8-1.1c0-0.7,0-1.3-0.1-2c-0.3-0.3-0.6-0.7-0.9-1c0.7-1.3,1.3-2.6,2-4c-0.3-0.7-0.6-1.4-0.9-2.2
			c0-0.3-0.1-0.6-0.1-0.9c-0.3-0.3-0.6-0.7-0.9-1c-0.4-1-0.8-1.9-1.2-2.9C2004.3,1414.8,2006.3,1416.1,2008.3,1417.5z"/>
		<path class="st55" d="M2008.2,1476.4c0.1,0.6,0.1,1.3,0.2,1.9c-0.4,3-0.7,6.1-1.1,9.1c0,0,0,0,0,0c-0.3,0.4-0.6,0.8-1,1.2
			c0,0.2,0.1,0.4,0.1,0.7c0.3,2.4,0.5,4.8,0.8,7.1c-0.3,1-0.5,1.9-0.8,2.9c-0.1,1.4-0.1,2.7-0.2,4.1c0,0.4,0,0.7,0,1.1
			c0,1,0,2,0.1,2.9c0.1,0.3,0.1,0.6,0.2,1c-0.1,1.7-0.2,3.4-0.3,5.1c-21.6,1.7-43.2,3.3-64.8,5c-12.7,1.4-25,0.5-36.4-6
			c-0.9-0.5-2.1-1.1-2.5-1.9c-0.2-0.5,1.2-2.4,1.4-2.3c2.8,1.1,6.6,4.3,7.9,3.4c4.6-2.8-1.7-4.5-1.8-7.2c-0.1-3.2-1-6.4-1.4-9.6
			c-0.1-0.7,0.5-1.6,0.8-2.3c3.5,2.3,5.3,4.8,5.5,9.6c0.4,11,6.3,15.7,17.8,14.1c17-2.3,35-0.9,51-6c23.6-7.5,15.5-31.8,20.5-49
			c1.5-5.3,1.4-11.1,2.1-16.7c0,1,0.1,2,0.1,3c0,1.3,0,2.6,0,3.9c0.3,1,0.6,2,0.9,3c0,1.3,0.1,2.6,0.1,4c0,1,0,2.1,0,3.1
			c0,2.6,0,5.2,0,7.8C2007.6,1471.7,2007.9,1474,2008.2,1476.4z"/>
		<path class="st54" d="M2022.3,1521.4c16.8-12.7,33.1-22.6,56.9-20.3c14.1,1.4,10.1,7,10.5,13.9c0.3,6.6,10.7-2.3,9.6,6.3
			c-10.7,2.3-18.9-8-30.4-5.2c-6.7,1.6-14.8-0.3-21.8-2.5c-8.5-2.6-12,5-18.2,6.8C2026.8,1521,2024.5,1521.1,2022.3,1521.4z"/>
		<path class="st20" d="M1941.4,1518.5c21.6-1.7,43.2-3.3,64.8-5c-19.9,2-39.8,4-59.7,6C1944.8,1519.2,1943.1,1518.9,1941.4,1518.5z
			"/>
		<path class="st54" d="M2007.3,1516.4C2007.3,1516.4,2007.3,1516.5,2007.3,1516.4C2007.3,1516.5,2007.3,1516.4,2007.3,1516.4z"/>
		<path class="st16" d="M1884.3,1422.4c8.6,21.3,2.5,46.2,15.6,66.5c0.3,0.5,0.5,1.7,0.3,1.8c-0.6,0.3-1.4,0.4-2.2,0.5
			c-1.7,0.1-4.9-0.2-5,0.3c-0.7,2.6-1.9,6.2-0.7,7.9c12.3,17.3-16.5,7.1-12.3,18.7c-0.3-1.5-0.9-2.9-0.8-4.4c3-29.3,7.7-58.6,3-88.2
			c-0.4-3.9-0.8-7.8-1.1-11.7c0,0.2,0.1,0.5,0.2,0.7c0.3,0.4,0.6,0.8,0.8,1.2c0,0.3,0.1,0.5,0.2,0.8c0.3,1.3,0.6,2.7,1,4
			c0.3,0.4,0.6,0.7,0.9,1.1C1884.3,1421.8,1884.3,1422.1,1884.3,1422.4z"/>
		<path class="st39" d="M1866.3,1544.4c0.3-0.3,0.6-0.6,0.9-0.9C1866.8,1543.8,1866.6,1544.1,1866.3,1544.4z"/>
		<path class="st39" d="M1865.3,1545.5c0.3-0.3,0.6-0.7,0.9-1C1865.9,1544.8,1865.6,1545.1,1865.3,1545.5z"/>
		<path class="st40" d="M2076,1413.2c-7.4-0.7-18.8,3.6-14.6-11.6C2070.3,1400.4,2075.9,1403.4,2076,1413.2z"/>
		<path class="st55" d="M1883.3,1420.4c-0.3-1.3-0.6-2.7-1-4c2,2,4,4,5.9,6c7.5,19.4,15.2,38.7,21.9,58.5
			c0.5,1.5,17.8,11.1-1.8,10.6c-6.2-23.6-11.6-47.5-24.1-69c0-0.3-0.1-0.6-0.1-0.9C1883.9,1421.2,1883.6,1420.8,1883.3,1420.4z"/>
		<path class="st39" d="M1882.2,1415.6c-0.3-0.4-0.6-0.8-0.8-1.2C1881.6,1414.8,1881.9,1415.2,1882.2,1415.6z"/>
		<path class="st43" d="M2006.3,1447.5c0-1-0.1-2-0.1-3c0.3-2,0.7-4,1-6C2006.9,1441.4,2006.6,1444.4,2006.3,1447.5z"/>
		<path class="st43" d="M2004.4,1418.3c0.3,0.7,0.6,1.4,0.9,2.2C2005,1419.7,2004.7,1419,2004.4,1418.3z"/>
		<path class="st43" d="M2006.3,1432.4c0.3,0.7,0.6,1.3,1,2C2006.9,1433.8,2006.6,1433.1,2006.3,1432.4z"/>
		<path class="st43" d="M2000.3,1409.4c0.3,0.7,0.6,1.4,0.9,2.1C2000.9,1410.8,2000.6,1410.1,2000.3,1409.4z"/>
		<path class="st43" d="M2005.3,1430.4c0.3,0.3,0.6,0.7,0.9,1C2005.9,1431.1,2005.6,1430.8,2005.3,1430.4z"/>
		<path class="st43" d="M2004.3,1427.4c0.3,0.4,0.6,0.7,0.8,1.1C2004.9,1428.1,2004.6,1427.8,2004.3,1427.4z"/>
		<path class="st43" d="M2003.3,1424.4c0.3,0.3,0.6,0.7,0.9,1C2003.9,1425.1,2003.6,1424.8,2003.3,1424.4z"/>
		<path class="st43" d="M2003.4,1416.4c0.3,0.3,0.6,0.7,0.9,1C2004,1417.1,2003.7,1416.7,2003.4,1416.4z"/>
		<path class="st56" d="M2536,1441.6c1.8-0.1,3.7-0.2,5.5-0.3c20.9,0.1,41.8,0.2,62.7,0.3c2.4,0.3,4.7,0.7,7.1,1
			c-2.2,12.3-1.9,23.6,4.9,35.5c5.6,9.8,3.6,22-11.5,22.4c-15.2,0.4-31.5,1.5-45.3-3.5c-22.2-8-26.7-27.9-23.3-49.8
			C2536.5,1445.3,2536.1,1443.5,2536,1441.6z"/>
		<path class="st15" d="M2611.4,1442.5c-2.4-0.3-4.7-0.7-7.1-1c3.3-0.3,6.6-0.6,9.8-1c2.7-0.1,5.5-0.1,8.2-0.2c1.3,0.3,2.7,0.7,4,1
			c-0.1,1-0.1,2-0.2,3c0,0,0.1-0.1,0.1-0.1c-0.7,0.1-1.3,0.2-2,0.4c-0.7-0.2-1.3-0.3-2-0.5C2618.6,1443.7,2615,1443.1,2611.4,1442.5
			z"/>
		<path class="st8" d="M2526.3,1439.5c2.7-0.3,5.4-0.7,8-1C2531.7,1438.8,2529,1439.2,2526.3,1439.5z"/>
		<path class="st8" d="M2610.2,1439.6c1,0.2,2.1,0.5,3.1,0.7C2612.3,1440.1,2611.2,1439.8,2610.2,1439.6z"/>
		<path class="st57" d="M2622.3,1444.2c0.7,0.2,1.3,0.3,2,0.5c0.7-0.1,1.3-0.2,2-0.4c0,0-0.1,0.1-0.1,0.1c0.4-1,0.8-2,1.1-3
			c0,0,0,0,0,0c1.9,24.9,3.9,49.8,5.7,74.7c0,0.4-0.3,0.9-0.4,1.4c-1.5-2.9-3-5.7-4.5-8.6c-11.3,9.7-3.9-2-3.6-3.4
			C2630.4,1484.9,2625.8,1464.6,2622.3,1444.2z"/>
		<path class="st46" d="M2627.3,1441.4c-0.4,1-0.8,2-1.1,3c0.1-1,0.1-2,0.2-3C2626.7,1441.4,2627,1441.4,2627.3,1441.4z"/>
		<path class="st23" d="M2050.3,1413.3c-2.3-0.2-4.7-0.5-7-0.7C2045.6,1412.8,2047.9,1413.1,2050.3,1413.3z"/>
		<path class="st28" d="M2134.3,1508.4c-0.3-0.3-0.7-0.6-1-0.9C2133.6,1507.8,2134,1508.1,2134.3,1508.4z"/>
		<path class="st28" d="M2135.1,1509.4c-0.3-0.3-0.6-0.6-0.9-1C2134.6,1508.8,2134.9,1509.1,2135.1,1509.4z"/>
		<path class="st28" d="M2135.9,1512.3c-0.2-0.4-0.4-0.8-0.6-1.2C2135.6,1511.6,2135.8,1511.9,2135.9,1512.3z"/>
		<path class="st44" d="M2007.3,1487.5c0.4-3,0.7-6.1,1.1-9.1C2008,1481.4,2007.7,1484.4,2007.3,1487.5z"/>
		<path class="st44" d="M2007.2,1496.4c-0.3-2.4-0.5-4.8-0.8-7.1C2006.7,1491.7,2006.9,1494,2007.2,1496.4z"/>
		<path class="st44" d="M2008.2,1476.4c-0.3-2.4-0.5-4.7-0.8-7.1C2007.6,1471.7,2007.9,1474,2008.2,1476.4z"/>
		<path class="st44" d="M2006.2,1503.4c0.1-1.4,0.1-2.7,0.2-4.1C2006.3,1500.7,2006.3,1502.1,2006.2,1503.4z"/>
		<path class="st44" d="M2007.3,1461.5c0-1,0-2.1,0-3.1C2007.3,1459.4,2007.3,1460.5,2007.3,1461.5z"/>
		<path class="st44" d="M2007.2,1454.4c-0.3-1-0.6-2-0.9-3C2006.6,1452.4,2006.9,1453.4,2007.2,1454.4z"/>
		<path class="st44" d="M2006.2,1507.4c0-1,0-2-0.1-2.9C2006.2,1505.5,2006.2,1506.5,2006.2,1507.4z"/>
		<path class="st44" d="M2006.3,1488.6c0.3-0.4,0.6-0.8,1-1.2C2007,1487.8,2006.7,1488.2,2006.3,1488.6z"/>
		<path class="st53" d="M1883.3,1420.4c0.3,0.4,0.6,0.7,0.9,1.1C1883.9,1421.2,1883.6,1420.8,1883.3,1420.4z"/>
		<path class="st46" d="M2626.2,1444.4c-0.7,0.1-1.3,0.2-2,0.4C2624.9,1444.6,2625.6,1444.5,2626.2,1444.4z"/>
	</g>
</g>
<g>
	<g>
		<path class="st58" d="M1.4,2597.4c0-865.2,0-1730.5,0-2595.8c1988.4,0,3976.8,0,5965.6,0c0,865.2,0,1730.5,0,2595.8
			C3978.5,2597.4,1990,2597.4,1.4,2597.4z M5714.6,2351c0.5-1,1.2-1.8,1.4-2.8c6.3-24.2,9.1-49,11.7-73.8
			c1.8-16.9,2.7-33.8,4.7-50.7c3.1-27.1,7.6-54,9.2-81.3c1.1-17.9,3.7-35.7,5.4-53.6c2.1-20.8,3.8-41.7,6-62.6
			c1.5-14.9,3.4-29.7,5.3-44.6c0.9-7.3,2.4-14.5,2.8-21.8c1.6-26.6,3.1-53.2,4.2-79.8c0.9-21.9,1.1-43.9,1.6-65.9
			c0.4-18.6,0.1-37.3,1.4-55.8c0.8-11.2,3-21.9-2.1-33c-2.4-5.3-4.3-10.2-9.2-13.5c-8.2-5.6-16.8-10.8-24.7-16.8
			c-12.5-9.4-24.3-19.7-36.9-28.8c-23.9-17.3-46.1-36.7-68.4-55.8c-18.9-16.2-36.6-33.8-57.5-47.7c-4.4-2.9-9-6.1-12.2-10.2
			c-6.2-7.8-14.1-13-22.2-18.3c-18.3-12-36.6-24-53.5-38.1c-17.1-14.2-34.8-27.7-52.4-41.3c-13.1-10.2-26.7-19.8-39.6-30.1
			c-11.9-9.6-23-20.2-35-29.8c-15.8-12.7-32.2-24.8-48.2-37.2c-4.8-3.7-9.8-6.3-15.6-8.4c-8.3-3-16.5-7-23.5-12.2
			c-5-3.7-10.1-5.9-15.8-7.7c-4.7-1.5-9.4-3.4-13.5-6.1c-22.7-14.6-45.4-29.3-67.8-44.2c-4.5-3-11.5-4.4-11-12.2
			c0-0.7-1.9-1.5-3-2.3c-3-2.1-6.2-3.9-9-6.2c-6.1-5-11.7-10.8-18.2-15.2c-11.7-7.9-24.1-14.8-35.8-22.6c-8-5.3-15.2-11.7-23-17.4
			c-4.8-3.5-9.6-7.1-14.9-9.7c-12.4-6.1-25.9-9.9-36.3-19.8c-2.6-2.4-6.6-3.4-12-6c3.7,27.3,7.1,52.1,10.6,78
			c-10.7-3.7-20-7.4-29.5-10.2c-30-9-60-17.8-90.1-26.4c-6-1.7-12.3-3-18.6-3.4c-50.6-3.1-101.1-5.9-151.7-8.9
			c-21.3-1.3-42.6-2.6-63.8-4.4c-41.8-3.6-83.6-7.5-125.4-11.3c-23.2-2.1-46.6-3.2-69.6-6.7c-43.9-6.6-88-9.9-132.2-12.6
			c-22.3-1.3-44.5-2.9-66.7-4.7c-37.5-3.1-75.2-4-112.8-5.7c-49.3-2.2-98.6-4.2-147.8-6.4c-1.9-0.1-3.8-0.7-6.1-1.2
			c0-5.6,0-10.9,0-16.7c-3-0.4-5.6-0.9-8.1-1.1c-7.6-0.7-15.2-1.4-22.9-1.8c-21.5-1.2-42.7-5.7-64.5-4.8
			c-19.8,0.7-39.8-1.7-59.7-2.6c-24.2-1.1-48.5-1.7-72.7-3c-31.9-1.7-63.7-1.7-95.6-0.5c-12.2,0.5-24.4,2.5-36.6,3.8
			c-2.2,0.2-4.3,0.4-7.9,0.8c2.4,4.1,4,7.3,6,10.2c11.8,16.9,23.7,33.7,35.4,50.6c8.3,12.1,16.4,24.3,24.2,36.7
			c7.4,11.8,14.5,23.9,21.5,35.9c5.9,10.1,9.5,21,13.2,32.1c5.1,15.3,13.1,29.7,19.7,44.5c1.3,3,2.6,6.1,3.4,9.3
			c6.1,27.5,6.9,55.4,6.7,83.3c-0.1,15.6-0.2,31.2-0.3,46.8c-0.1,12.9,0.1,25.8-0.5,38.7c-0.6,12.6-2.5,25-3.3,37.6
			c-0.8,12.9-0.7,26-1.4,38.9c-4.1,74.9-6,149.9-4.2,224.9c0.4,18.6,2.9,37.2,6,55.5c1.8,10.7,6.7,20.9,10.4,31.2
			c4.7,13.3,11.7,25.3,21.2,35.9c4.8,5.4,10.1,11.3,12.3,18c6.3,18.8,16.8,35.3,27.5,51.5c17.2,26.2,34.6,52.2,52.9,77.6
			c7.1,9.8,15,18.6,20.5,29.9c10.6,21.8,24,42.2,36,63.4c6.3,11,13.7,21.7,17.6,33.5c4.1,12.2,12,21.6,18.2,32.3
			c12,20.9,21.8,42.6,29.6,65.4c7.4,21.7,15.8,43.2,23.8,64.7c1.4,3.7,2.9,7.2,4.6,11.4c24.2-0.7,47.8-1.1,71.4-2.1
			c26.9-1.1,53.8-3.1,80.7-4.2c39.2-1.6,78.5-2.8,117.8-4.1c24.6-0.8,49.2-1.7,73.8-2.4c13.6-0.4,27.2-0.8,40.8-1
			c4.6-0.1,9.3,1,13.9,0.9c18.6-0.3,37.2-1,55.8-1.4c37.9-0.8,75.9-1.5,113.8-2.1c13.6-0.2,27.2,0,40.9,0.1
			c23.3,0.2,46.5-2.5,69.8,1c4.2,0.6,8.6-0.3,12.9-0.7c4-0.3,7.9-1.1,11.9-1.1c29.6,0.1,59.2,0.2,88.8,0.6
			c12.6,0.2,25.2,1.5,37.8,1.2c10.6-0.3,21-1,31.7,0c28.8,2.7,57.7-0.5,86.6,0.1c23.2,0.5,46.4-1.5,69.6-2.3
			c10.9-0.3,21.8,0,32.7-0.3c28.3-0.8,56.5-1.8,84.8-2.8c11.9-0.4,24,0.6,35.3-4.6c5-2.3,10.2-1.2,14.4,1.3c5,3,10.1,2.9,15.4,2.8
			c11.6-0.4,23.1-1.1,34.7-1.2c18.6-0.2,37.2,0,55.8-0.1c34.3-0.1,68.6-0.3,102.8-0.6c29.9-0.3,59.8-1.2,89.7-1.3
			c28.3,0,56.6,0.8,84.9,1.2c2,0,4.1,0,5.9,0.6c12.8,3.8,25.7,2.1,38.6,0.9C5670.7,2354.5,5692.2,2352.9,5714.6,2351z M3302.3,1054
			c-16.5-2-951.3,6.6-959.7,8.8c0,9.8-1.8,20,0.4,29.4c2.7,11.5,3.9,22.1-0.7,33.1c-2.8,6.7-7,13.2-8.1,20.1
			c-4.5,29.6-8.3,59.3-11.8,89c-2.1,17.5-3.2,35.1-4.9,52.6c-0.9,9.3-2.5,18.5-3,27.8c-0.5,8.5-0.8,17.2,0.1,25.7
			c1.6,15.2,5.4,30.2,6.2,45.4c1.7,30.9,2.4,61.9,2.8,92.8c0.3,31.3-0.6,62.5-0.4,93.8c0.5,73.6,1.2,147.2,2,220.8
			c0.1,11.6,0.8,23.3,2.5,34.8c1,6.3,4.5,12.3,7.2,18.3c1.5,3.4,4.4,4.3,8.1,4.5c5.6,0.3,11.4,0.8,16.7,2.5c5.2,1.6,10,1.7,14.5-0.5
			c11.5-5.6,23.2-4,35.2-2.5c11.1,1.4,22.7,3.4,33.4,1.4c16.6-3.1,33.1-2.8,49.7-2.6c25.9,0.2,51.6,3.1,77.7,1
			c29.8-2.4,59.9-1.5,89.9-1.5c58,0.1,115.9,0.9,173.9,0.7c44.2-0.1,88.4-1.4,132.6-1.7c43.3-0.3,86.5,0.1,129.8,0.1
			c16.9,0,33.8,0.4,50.7-0.1c37.3-1.1,74.5-3.1,111.7-3.9c33.9-0.7,67.8-0.2,101.8,0c14.6,0.1,29.3,1.4,43.9,1
			c37.2-1,74.4-3.9,111.7-3.5c31.6,0.4,63.2,1.7,94.7-2.1c10-1.2,20.5,0.6,30.7,1.6c5.6,0.5,11.2,1.7,16.5,3.4
			c10.5,3.3,20.8,6.1,32.2,4.6c8.9-1.1,18-0.3,26.9-0.5c6.9-0.2,13.7-0.7,20.2-1c0.4-1.8,0.8-2.5,0.7-3.1
			c-4.2-31.2-3.5-62.6-3.4-93.8c0.2-75,3.4-149.8,8-224.6c0.7-11.9,1.6-23.9,1.8-35.9c0.2-11.2-0.7-22.5-0.7-33.7
			c0-25.5,0.8-51.1,0.1-76.6c-0.4-12.8-2.1-25.9-5.5-38.3c-3.1-11.2-9.4-21.4-14.2-32.1c-3.3-7.6-7.4-15-9.3-22.9
			c-3.7-15.5-11.5-29-19.6-42.3c-10.2-16.8-21.6-32.8-32.4-49.2c-4.2-6.4-7.8-13.2-12.3-19.4c-2.8-3.9-7.1-6.8-9.8-10.8
			c-9.4-14.1-18.5-28.4-27.2-43c-2.5-4.1-5.7-5.2-9.7-5.8c-43.7-7.3-87.6-12.7-131.8-16.3c-45.8-3.7-91.6-7.8-137.4-12.4
			c-13.8-1.4-26.6-7.6-40.4-11.7C3297.1,1067.8,3299.5,1061.4,3302.3,1054z M814.7,1814.8c9.9,0,19.1,0.5,28.3-0.1
			c25.9-1.6,51.7-4.8,77.5-5.3c39.2-0.8,78.3,0,117.5,0.5c16.6,0.2,33.2,2.1,49.8,2.1c46.9,0,93.9-1.1,140.8-4.2
			c8.6-0.6,17.4-0.8,25.9,0.3c14.4,1.9,28.5,0.8,42.8-1c7.5-1,15.2-0.8,22.8-0.8c4.6,0,9.3,1,13.9,0.9c42.6-1.1,85.2-2.4,127.7-3.5
			c2.3-0.1,4.7,0.1,7,0.1c6.9,0,13.9,0.1,20.8,0.1c4.7,0,9.3-0.3,14-0.2c14.9,0.4,29.8,1,44.7,1.5c24.6,0.7,49.2,1.5,73.8,2
			c31.2,0.6,62.4,1.8,93.6,1.2c35.2-0.7,70.4-3.5,105.7-4.7c34.3-1.2,68.5-1.9,102.8-2.1c26.6-0.2,53.2,0.9,79.9,0.9
			c25.9,0,51.8-0.7,77.7-1.2c29.3-0.6,58.6-1.2,87.8-1.8c0.7,0,1.3-0.2,2-0.2c15.2,0,30.5-2.6,45.7,0.1c21.1,3.6,42.4,3.2,63.7,2.1
			c16.9-0.9,24-8.4,23.8-25.1c-0.3-32-1.1-63.9-1.3-95.9c-0.3-51.9,0-103.9-0.3-155.8c-0.3-39.3-1.3-78.5-1.7-117.8
			c-0.2-21.7-3.8-43-7-64.4c-1.3-8.5-1.8-17.3-1-25.7c2.3-23.1,5.6-46.2,8.4-69.3c0.3-2.6-0.1-5.3,0.1-8c0.3-5.3,0.7-10.6,1.4-15.8
			c0.7-5.9,1.9-11.8,2.7-17.7c2.8-22.1,5.9-44.2,8.1-66.4c1.6-15.9,2.2-31.8,3-47.8c0.1-2.9-1.3-6-2-8.9c-0.8,0-1.6-0.1-2.4-0.1
			c4.7,10.6-0.2,17.9-7,24.7c-5.1-0.7-10.3-0.6-14.8-2.2c-12.7-4.7-25.7-6.4-39-7.3c-21.9-1.5-43.9-2.7-65.8-4.9
			c-17.4-1.7-34.9-1.9-51.1-11.2c-23.2-13.2-20.2-11-41.6,1.1c-4.6,2.6-9.4,6-14.4,6.5c-20.5,1.9-41.2,3.8-61.8,3.9
			c-21.3,0-42.6-2.2-63.9-3.2c-6-0.3-12-0.1-17.9,0.5c-39.1,4.2-78.1,8.6-117.2,12.9c-25.5,2.8-51.1,4.9-76.5,8.2
			c-19.5,2.5-38.7,7.2-58.2,9.4c-29.8,3.4-59.7,5.7-89.5,8.3c-7.6,0.7-15.1,1.1-23.4,1.6c-2-12.7-6.1-24.3-2.4-36.9
			c3-10.4,4.4-21.4,6.6-32.7c-3.1-0.4-5.4-1.1-7.6-0.9c-9.9,0.7-19.8,1.8-29.8,2.5c-28.2,2-56.3,3.9-84.5,6
			c-23.5,1.8-47,4.1-70.6,5.9c-28.9,2.2-57.8,4-86.6,6.1c-29.2,2.2-58.4,4.3-87.5,6.9c-23.8,2.1-47.6,5.6-71.4,7.4
			c-39.5,3-79,6-118.5,7.5c-37.1,1.4-73.2,8.6-109.5,15c-9.1,1.6-14,6.9-14.9,15.8c-0.6,5.3-2.8,8.9-6.6,12.7
			c-8.4,8.5-16.3,17.6-23.7,26.9c-6.6,8.3-11.2,18.3-18.5,25.9c-7.3,7.7-9.4,20.1-21.1,24.1c-1.4,0.5-1.9,3.4-2.9,5.1
			c-3.1,5.1-5.4,11.3-9.7,15c-7.1,5.9-10.4,14.2-16.2,20.9c-3.5,4-4.1,8.9-3.9,14c0.6,17.9,1.3,35.8,1.6,53.8
			c0.7,38.3,1.2,76.6,1.9,114.9c0.6,31.3,1,62.6,2.1,93.8c1.2,37.3,2.7,74.5,4.6,111.8c1.3,25.6,3.5,51.1,5.3,76.6
			c1.4,20.9,2.6,41.8,4.2,62.7C811.8,1799.4,813.5,1806.8,814.7,1814.8z M841,359.8c-8.1,0-17,0-26,0c-5.3,0-10.5,0.5-15.8,0.1
			c-14.6-1.2-29.1-4.1-43.6-3.9c-38.6,0.6-77.2-2.6-115.8,1.7c-5.2,0.6-9.5,1-13.1,5.3c-1.8,2.1-5,3.4-7.8,4
			c-9.4,1.8-19,2.7-28.3,4.7c-7.8,1.7-16.6,2.1-19.5,12.5c-0.7,2.7-4.3,5.1-7.2,6.5c-5.7,2.7-11.7,4.6-17.7,6.8
			c-10,3.6-20.3,6.4-30,10.7c-29.9,13.3-58.3,29-85.1,48c-42.4,30-89.2,53.2-131.1,84.1c-5.3,3.9-10.6,8.1-16,11.9
			c-5,3.5-9.2,8.7-16.3,8.1c-0.6,0-1.9,0.9-1.9,1.3c0,5.6-5,6.7-8.3,9C237,584.9,216,598.4,198,616.1c-4.1,4-5.7,7.6-4.5,13.1
			c0.7,3.4,1,7.4-0.1,10.6c-2.4,7.5-4.7,15.4-9,21.8c-4.7,7-5,14.3-5.5,21.8c-0.2,3,0,6-0.2,9c-1.2,16.1-3.1,32.3-3.5,48.4
			c-0.6,21.6-0.2,43.1,0,64.7c0.1,7.6,1.1,15.2,1.6,22.8c0.4,6.3,0.7,12.6,0.8,18.9c0.5,21.9,0.5,43.8,1.4,65.7
			c0.9,21.9,2.7,43.8,4.1,65.7c0.2,3.7,0.6,7.3,0.8,11c0.5,9.3,1,18.5,1.2,27.8c0.3,12.6-1.1,25.5,1,37.8c2.4,13.6,2.4,27,2.9,40.6
			c0.4,11.3,1.3,22.6,2.2,33.8c0.4,5.6-0.3,11.7,1.9,16.5c4.4,9.5,3.8,18.9,1.1,28.2c-2.1,7.3-1.8,13.4,1.9,20
			c4.1,7.4,6.5,15.5,2.3,23.8c-3.8,7.5-3.7,15-2.1,23.1c1,5,1.1,11.3-1.2,15.4c-3.7,6.6-2.9,12.7-1.7,19.2c0.4,2.3,0.9,4.6,1.1,6.8
			c0.5,10.3,0.5,20.6,1.2,30.8c1.6,21.5,3.5,43.1,5.2,64.6c1,13.6,1.9,27.2,2.7,40.8c1,16.5,2,33.1,2.6,49.6
			c0.6,18.6,0.6,37.1,1,55.7c0.2,7,1.1,13.9,1,20.8c-0.2,15.9-1,31.9-1.3,47.8c-0.1,5-0.2,10.1,0.9,14.9c3.6,15.3,1.6,31,3.6,46.4
			c0.2,1.3-0.2,2.7-0.2,4c-0.1,17.6-0.7,35.1-0.1,52.7c0.5,13.5,2.9,27,3.9,40.6c1,13.8,1.2,27.7,2.2,41.5
			c0.7,9.5,0.9,19.1,7.3,27.4c3.5,4.5,4.1,10.1,3.5,16.1c-0.6,6.1-0.4,12.7,1.1,18.6c1.1,4.1,6.5,7.2,7.5,11.3
			c2.2,9.7,8.4,11.4,16.8,11c3.3-0.1,6.5,1.3,9.8,1.5c3.9,0.3,7.9,0.4,11.9,0.2c5-0.3,9.9-1.6,14.8-1.5c11.3,0.3,22.5,1.6,33.7,1.6
			c14.3,0.1,28.6-0.8,42.9-1c20.6-0.2,41.1-0.2,61.7-0.2c4.3,0,8.6-0.3,12.9-0.2c17,0.4,33.9,1,50.9,1.4c6.3,0.1,12.6-0.5,18.9-0.2
			c15,0.6,29.9,1.5,44.9,2.3c36.2,1.9,72.5,3.2,108.8,2c9.6-0.3,19.2-1.5,28.7,1.6c3,1,6.6,0.3,9.9,0.2c6.3-0.3,12.6-1.1,18.9-1.2
			c4.5-0.1,8.1-0.7,11.6-4.2c5.3-5.3,12.2-6.5,19.4-4c4.7,1.6,9.4,3.3,13.9,5.3c3.8,1.6,7.3,2.3,11,0.6c-1.3-12.8-2.9-25-3.8-37.2
			c-1.6-22.2-2.9-44.5-4.2-66.8c-2.4-43.2-4.7-86.3-7-129.5c-0.2-3-0.1-6.1-1-8.9c-3.6-10.7-3.6-21.3-0.4-32.1
			c0.5-1.6,0.8-3.4,0.5-4.9c-3-14.4-1.8-29-1.8-43.6c0-23.9,0.1-47.8-0.4-71.7c-0.6-28.6-1.9-57.2-2.6-85.8
			c-0.3-9.6-0.5-19.4,0.5-28.9c3.4-31.8,7.3-63.5,11.2-95.3c0.6-4.6,1.1-9.6,3.2-13.4c5.5-9.8,10.6-20.5,18.4-28.3
			c10.7-10.6,14.6-26.5,27.9-34.7c10.1-15.5,20.8-30.6,29.9-46.5c5-8.7,13.3-15.5,14.3-26.7c0.6-7.4,3.3-14.6,4.9-22
			c0.2-1.1-0.5-2.4-0.5-3.6c0-2.8-0.7-5.9,0.2-8.5c3.5-9.9,1.9-20.1,2-30.1c0-1.7-2.1-3.9-1.6-5.2c3.7-9.6,2.6-20,5.2-29.7
			c1-3.7,2.8-7.5,2.8-11.2c-0.2-13.9,4.7-27.6,1.3-41.6c-0.5-2.3,0.2-6.1,1.8-7.3c4-3.1,0.5-5.6,0.6-8.3c0.1-2.8,3.5-5.4,5.2-8.3
			c0.5-0.9,0.5-2.8-0.2-3.7c-3.8-5.6-0.6-10,2.1-14.2c-0.9-2.8-3.2-6.4-2.3-8c3.5-6.2,1.6-13.3,4-19.6c1.2-3.1,2.3-7.1,1.5-10.1
			c-2.8-9.8-1.4-19.2,0.7-28.7c1-4.3,0.5-9,1-13.5c0.3-2.9,1.3-5.7,2.3-9.4c-4.2-2.6-2.9-7.2-0.9-11.4c2.5-5.1,2.8-10,1.4-15.4
			c-0.5-2.1,0-4.6,0.3-6.8c2.7-18.7,4.8-37.4,5.5-56.3c0.3-9.1,2.8-18.1,3.1-27.2c0.2-6.3,2.9-13.6-4.2-18.1
			c3.5-7.2,7.3-13.9,4.4-22c-0.4-1.2-0.4-2.7-0.2-4c0.9-8.5,2.1-17,2.6-25.5c0.7-10.7,3-21.4-0.8-32.3c-1.8-5.3-2.1-11.7-1.2-17.2
			c1.9-11.6,0.8-22.9-0.3-34.4c-0.6-5.8-2.7-11.7-2.1-17.4c1.3-13.4-0.3-26.5-2.4-39.5c-2.1-12.6-6.4-24.9-9.7-37.3
			c-5.6-21.2-11-42.6-16.8-63.7c-1.6-5.7-1-12.8-8.5-15.7c-1.3-0.5-1.5-3.5-2.4-5.3c-1.9-3.9-3.6-7.9-5.8-11.5
			C851.7,375.8,846.9,368.7,841,359.8z M5730.5,1666.5c0.5-8.1,0.9-14.3,1.2-20.5c2.3-41.2,4.8-82.4,6.8-123.6
			c1.4-28.3,1.1-56.6,3.3-84.8c2.4-32.1,3.6-64.4,9.4-96.3c3.1-17,4.1-34.3,6-51.5c1.4-12.9,3.1-25.8,4.1-38.7
			c2-26.2,3.7-52.4,5.5-78.6c2.8-40.2,5.7-80.3,8.5-120.5c2-28.5,4.1-57.1,6-85.6c2.1-32.2,4-64.4,5.9-96.6
			c1.1-19.9,1.9-39.9,2.8-59.9c1-21.6,1.9-43.1,2.9-64.7c0.6-14.6,1-29.1,1.8-43.7c0.8-14.9,1.8-29.8,2.9-44.7
			c0.4-5.2-0.7-8.8-6.4-10.8c-3.2-1.1-5.8-4.1-8.6-6.4c-2-1.7-3.6-4-5.9-5.3c-12.6-6.8-25.2-13.6-38.1-19.8
			c-7.1-3.5-15.3-4.9-22.1-8.8c-21.3-12.4-44-21.8-66.9-30.7c-6.5-2.5-12.9-5.6-19.6-7.1c-12.3-2.7-23-10.2-36-10.6
			c-2.8-0.1-5.6-3.3-8.3-5.1c-2.2-1.4-4.1-3.4-6.5-4.3c-10.7-4.3-21.7-8.2-32.3-12.7c-3.9-1.6-6.9-5.1-10.8-7
			c-6.8-3.2-13.9-6-21-8.7c-7.7-2.9-15.9-4.9-23.4-8.4c-10.6-4.9-20.7-11-31.8-14.9c-0.9-0.3-1.4-1.4-2.2-2
			c-5.3-3.8-10.2-7.7-17.7-7.5c-4.6,0.1-9.4-2.9-13.9-4.9c-6.7-2.9-13-6.6-19.8-9c-9.3-3.3-18.9-5.8-28.4-8.7
			c-4.4-1.4-9-2.5-13.2-4.4c-9.8-4.4-19.8-7.1-30.6-7.9c-3.9-0.3-8.1-3-11.1-5.8c-8.7-7.8-18.5-13.9-29.3-17.9
			c-8.3-3.1-17.3-4.2-25.9-6.7c-9.2-2.7-18.4-5.7-27.4-9.1c-2.6-1-5.5-3.3-6.6-5.8c-2.4-5.4-7.1-6.6-11.8-8.1
			c-2.8-0.9-5.7-1.7-8.5-2.9c-11.2-4.5-23.2-7.5-31.9-16.7c-0.4-0.5-1.1-0.7-1.8-0.9c-10.7-3.4-21.2-8-32.9-6.4
			c-4.3,0.6-8.7,0.2-13,0.3c-18.3,0.3-36.8,2.6-54.8,0.3c-16.3-2.1-31.6,3.9-47.9,1c-2.8,7.7-5.2,14.4-8.2,22.6
			c9.7-2.4,18.2-4.9,26.9-6.5c8.7-1.5,17.7-2,28.3-3.1c-1.8,4.9-2.9,8.6-4.5,12.1c-27.9,61.9-56.5,123.6-77.1,188.5
			c-1.2,3.8-2.6,7.6-3,11.5c-1.1,9.3-1.3,18.6-2.5,27.9c-3,22.7-1,46.1-10,67.9c-0.6,1.5-0.6,3.3-0.7,4.9c-0.3,18.3-0.9,36.6-0.7,55
			c0.2,19.2,1.7,38.4,1.7,57.6c0,20.3,0.7,40.5,3.7,60.5c0.5,3.2-0.4,6.6-0.7,9.9c-0.2,2-1.5,4.3-0.8,5.8c4.2,8.8,1.7,18.3,3.2,27.3
			c1.3,8.2,2.2,16.5,2.6,24.7c1.6,27.9,2.8,55.9,4.5,83.9c0.6,10.3,2.2,20.5,3.4,30.7c0.7,6.6,1.7,13.2,2.1,19.8
			c0.7,9.6,1.3,19.2,5.7,28c2,4,5.5,7.8,6,12c1.6,12.6,9.2,21.1,18.6,27.6c14.1,9.8,29.2,18.2,43.9,27.2c2,1.2,4.6,2.2,5.6,4
			c4.6,8.2,12.2,13.1,19.3,18.4c18.6,14,37.2,27.9,56,41.7c7.5,5.5,16,9.6,22.9,15.6c15.5,13.6,30.2,28,45.3,41.9
			c1.4,1.3,3.4,2.2,5.3,2.5c26.8,5.2,49.5,19.2,71.3,34.6c18,12.7,35.2,26.3,52.7,39.6c7.9,6.1,16.3,11.7,23.4,18.7
			c17.4,17.2,37.7,30.6,56.8,45.5c21,16.4,41.8,32.9,62.8,49.3c8.6,6.7,17.3,13.5,26.2,19.8c14.1,10,28.7,19.3,42.6,29.4
			c7.2,5.3,13.2,12.1,20.1,17.8c10.8,8.9,21.9,17.3,32.8,26.1c10.8,8.8,21.5,17.8,32.1,26.7c2.8,2.3,5.4,4.9,8,7.5
			c5,4.8,9.8,9.9,15.1,14.4c6.3,5.4,13,10.4,19.7,15.3C5704,1647.2,5716.3,1656.1,5730.5,1666.5z M4449.7,348.5
			c-4.9,1.1-7.8,1.5-10.6,2.3c-11.9,3.3-23.7,6.9-35.6,9.9c-7.4,1.9-14.9,3.8-22.5,4.3c-20.9,1.3-41.9,1.8-62.9,2.8
			c-32.3,1.4-64.6,3-96.9,4.4c-53.3,2.4-106.5,5-159.8,7.1c-53.3,2.1-106.6,3.9-159.9,5.4c-12.2,0.3-24.5-0.9-36.8-1.5
			c-10.3-0.5-20.5-1.8-30.8-1.9c-19.7-0.3-39.3,0.3-59-0.2c-19.6-0.5-39.2-2.1-58.9-2.9c-7.6-0.3-15.2,0.8-22.8,0.8
			c-6.3,0-12.7,0.1-18.8-1.2c-15.3-3.2-30.4-7.1-45.6-10.6c-40.7-9.3-81.9-14.1-123.4-18c-9.5-0.9-19.4-2.3-28.1-5.9
			c-25.4-10.6-51.8-17.1-78.9-20.9c-4.8-0.7-9.7-0.1-14.7-0.1c0,2.1-0.2,3.4,0,4.7c4.6,30.3,9,60.6,13.9,90.8
			c3.2,20.1,7.9,39.9,15.7,58.7c4,9.7,6.9,19.2,7.9,29.6c0.5,5.3,1.5,10.5,2.9,15.7c2,7.7,1.7,15.1-0.9,22.6c-1.1,3-1.8,6.4-1.5,9.6
			c2.1,26.6,4.6,53.1,6.7,79.7c1.3,17.2,3.3,34.6,2.5,51.8c-1,22.3-4.2,44.4-6.7,66.6c-3.7,32.8-7.5,65.6-4.3,98.6
			c0.9,9.2-0.5,17.8-3.1,26.6c-12.8,44.5-25.6,88.9-38.2,133.4c-1.9,6.8-5.3,11.8-10.9,16.1c-13.5,10.3-26.7,21-40,31.6
			c-1.6,1.3-2.8,3.1-5.1,5.6c5.8,1.4,10.2,3.1,14.7,3.5c35.5,3.4,71,6.7,106.5,9.8c51.1,4.5,102.3,8.1,152.8,17.8
			c7.4,1.4,14.4,1.2,21.2-2.7c16.7-9.5,34.7-13.2,53.8-10.9c1.3,0.2,2.7,0.1,4,0.1c81.6,0.8,163.2,6.2,244.9,2.2
			c7.9-0.4,15.9,0.8,23.7,2.2c10.5,1.8,20.9,4.3,31.2,6.9c19.5,4.8,39.1,7.4,59.3,7.3c26-0.2,52,1,78,1.6c2.3,0.1,4.7,0.1,7,0.4
			c61.1,10.1,122.3,19.4,182.9,32.5c15.3,3.3,30.6,7,46.1,8.6c21.5,2.2,43.2,2.7,64.9,3.8c2.2,0.1,4.4-0.3,8.5-0.6
			c-3.4-4.3-5.6-7.4-8.1-10.3c-18.6-21.4-37.1-42.8-55.8-64.1c-5.5-6.3-9.3-13-8-21.7c2.1-14.2,3.8-28.4,6.5-42.5
			c3.9-20.2,5.1-40.1-2.9-59.7c-0.4-0.9-0.3-2-0.7-2.9c-8-20.9-8.1-41.9-2.5-63.5c5.2-20,6-40.6,5.5-61.4
			c-0.9-35.2-3.6-70.6,1.3-105.8c2.1-14.8,2.4-30,5.2-44.6c10.7-55.6,22.9-110.9,33-166.5c6.7-36.9,16.4-72.6,33.1-106.3
			C4436,381.9,4442.1,366,4449.7,348.5z M3378.3,422.3c-2.9-0.2-5.2-0.5-7.5-0.6c-41-1.3-81.9-3-122.9-3.7
			c-82.6-1.5-165.3-2.9-247.9-3.7c-45.6-0.5-91.3,0.1-137,0.6c-51.6,0.5-103.3,1.4-154.9,2.2c-40.7,0.6-81.3,1.3-122,2
			c-64.6,1-129.3,1.9-193.9,2.9c-14.7,0.2-29.4,1-42.9,7.8c-4.7,2.4-9.3,4.9-14.8,7.8c-1.4,9.5-3,19.6-4.4,29.8
			c-2.1,15.5-5.1,31-5.7,46.6c-2,50.3-3,100.6-4.4,150.9c-0.1,3.7-0.1,7.3,0.1,11c2.3,42.3,4.7,84.5,6.9,126.8
			c2,38.4-2.9,76.5-4.8,114.8c-1.9,38.6-4.6,77.2-6.9,115.8c-0.2,2.8,0,5.7,0,8.5c41.3-0.5,81.3-0.6,121.3-1.7
			c11.7-0.3,21.6,1.6,29.8,10.1c3.4,3.5,7.4,4.9,12.5,4.7c49.6-1.7,99.3-3.2,148.9-4.7c137.9-4.1,275.8-8.2,413.8-12.2
			c80.9-2.3,161.8-4.5,242.6-6.9c9.9-0.3,20.1-0.7,29.7-2.8c12.3-2.6,24.2-7.3,36.4-10.5c5.6-1.5,7.9-4.6,9.4-10
			c7-25.4,14.4-50.6,21.6-75.9c2.3-8,4.8-16,6.2-24.2c6-35.5,11.2-71.1,17.6-106.4c5.3-29,7-58.1,6.4-87.5
			c-0.5-23.7,0.3-47.3-0.2-71c-0.5-18.6-2.5-37.2-3.3-55.8c-0.9-19.5-6.9-38.7-3.1-58.4c0.2-0.9-0.1-2-0.3-3c-2-11-5.4-22-5.6-33.1
			c-0.2-14.3-7-23.4-17.8-31.1c-3.5-2.5-7.7-4.8-9.3-9.7c4.2-0.3,7.6-0.6,11.8-1C3381.9,440.7,3380.1,431.7,3378.3,422.3z
			 M849,287.2c1,4,1.8,6.5,2.3,9.1c2.8,13.9,9.8,27,8.9,41.8c-0.1,1.5,1.1,3.1,1.9,4.5c4.3,6.6,8.7,13.2,12.9,19.8
			c1.2,1.9,1.8,4.3,2.7,6.4c1.7,3.9,3.2,8,5.3,11.8c3.5,6.4,8.7,12.2,10.8,18.9c5.2,16.4,9.1,33.3,13.5,50c0.3,1.3,0.6,2.7,0.3,4
			c-2.4,10.4,2.6,19.5,4.8,29.1c2.9,12.6,6.8,25.1,8.2,37.9c2.4,22.1,3.3,44.3,4.6,66.5c0.5,8.6,0.5,17.2,0.7,25.8
			c0.4,13.2,2.5,26.7,0.9,39.7c-2.2,17.2-0.8,34.4-1.5,51.5c-0.6,14.1-1.4,28.2-2.5,42.3c-1.4,18.2-3.4,36.3-5.1,54.4
			c-0.7,8.2-1.1,16.5-1.7,24.7c-0.7,10.2-1.3,20.4-2.2,30.6c-0.9,10.2-2.1,20.3-3,30.5c-0.8,9.2-1.4,18.5-2.1,27.7
			c-0.3,4.3-2,8.8-1.1,12.8c2.5,11.7-1.8,22.3-3.7,33.3c-2,11.1-3.5,22.3-4.8,33.4c-1,8.5-0.7,17.2-2.1,25.6c-1,6-2.2,11.4-0.3,17.6
			c1.1,3.5,1.2,8.7-0.7,11.5c-4.4,6.7-3,14-4.3,21c-1.2,6.5-1.5,13.2-1.7,19.8c-0.2,4.1,0.5,8.2,0.8,12.5
			c12.9-2.5,24.2-4.9,35.7-6.8c20-3.3,39.9-7.3,60.1-9.3c24.8-2.4,49.8-2.6,74.7-4.4c29.9-2.1,59.7-4.8,89.5-7.3
			c13.6-1.1,27.2-2.1,40.8-3.4c21.8-2.1,43.6-4.9,65.5-6.7c34.2-2.8,68.4-5.1,102.5-7.6c11.9-0.9,23.9-2.1,35.8-3
			c28.2-2.1,56.4-4.2,84.6-6.3c26.8-2,53.7-4,80.5-6c7.8-0.6,15.6-1,23.8-1.6c0-7.9,1-14.7-0.2-21c-2.6-13.4-0.7-26.4,0.9-39.5
			c1.2-9.5,1.2-19.1,1.7-28.7c0.2-3.9,0.2-7.8,0.3-11.7c0.2-7.8,0.4-15.6,0.6-23.4c0.1-4.3-0.2-8.6,0.4-12.8
			c3.6-22.2,7.1-44.3,6.2-66.9c-1-21.9-2-43.8-2.7-65.6c-0.2-6.6,1.2-13.3,0.8-19.8c-0.8-13.9-1.8-27.9-3.5-41.7
			c-3.3-26.6,0.1-53.1,0.3-79.7c0-5.1-1.2-10.4-2.5-15.4c-1.3-5.1-4.1-9.9-5.2-15c-2.4-11.4-4-22.9-6-34.3c-0.4-2.2-0.8-4.7-2.1-6.5
			c-5.5-7.9-7.1-17.1-9.2-26.2c-0.9-3.8-1.7-7.8-3.6-11.2c-4.2-7.9-9.7-15.2-13.2-23.4c-4.7-10.9-8.1-22.4-11.9-33.7
			c-3.9-11.4-5.7-22.6,2.5-33.2c0.8-1,1-2.5,1.3-3.7c2.8-10.7,10.1-15.9,20.5-17.7c3.2-0.5,6.7-1,9.4-2.6c8.1-4.7,16.2-5.2,25-2.1
			c3.3,1.2,7.2,2.3,10.6,1.8c11-1.7,20.9,0.2,30.6,5.7c4.5,2.5,9.8,3.8,14.9,5c14.8,3.5,30.2,4.9,44.1,11.9c5.9,3,11.7,6.5,18,8
			c16.4,3.9,33.1,6.7,49.6,10.1c9.8,2,19.5,3.5,29.6,3.5c17.3,0,34.5,1,51.8,1.8c8.6,0.4,17.2,1.3,25.8,2.1
			c6.6,0.6,13.1,1.6,19.7,2.1c1.8,0.2,3.6-0.5,6.2-0.9c-3.7-9.2-1.8-17.7,0.5-26.1c0.9-3.2,1.3-6.5,1.5-9.8
			c1.1-15.8-2-31.2-4.8-46.5c-2.5-13.7-6.7-27.4,2.4-40.4c0.7-1,0.4-2.6,0.9-3.9c2.3-6.2,4-12.8,7-18.6
			c13.7-26.6,20.4-55.2,25.5-84.9c-1.8,0-3.1-0.3-4.3,0c-19.2,5.4-38.5,10.6-57.6,16.4c-15.1,4.6-29.2,11.4-41.2,21.9
			c-6.4,5.5-14.1,7.1-22,8.5c-17.7,3.1-35.4,5.9-53,9.6c-29.3,6.2-58.3,13.9-87.7,19.4c-26.2,4.9-52.7,7.8-79.1,11.4
			c-18.1,2.4-36.3,4.4-54.5,6.8c-12.5,1.6-25.3,2.1-36.6,8.9c-10.5,6.3-22,6.5-33.8,6.1c-17.6-0.6-35.3-1.5-52.9-0.4
			c-26.2,1.7-52.3,5.1-78.5,7.7c-10.6,1.1-21.2,2.5-31.8,2.8c-14.6,0.4-29.1,3.6-43.8,0.2c-6.4-1.4-13.2-1.7-19.8-1.5
			c-21.3,0.4-42.6,1.3-63.9,1.8c-5.3,0.1-10.7-0.2-15.9-0.8c-22.1-2.8-44.2-5.9-66.3-8.6c-10.6-1.3-21.2-2.4-31.8-3.3
			c-9.3-0.8-18.6-1-27.8-1.7c-6.6-0.5-14.3,0.5-19.5-2.5c-12.3-7.2-26.1-7.2-39.1-11c-2.2-0.7-4.4-1.5-6.7-2.1
			c-14.1-4-28.1-8-42.2-11.8c-9.6-2.6-19.3-4.9-29-7.5C876.6,290.9,863.7,287.7,849,287.2z M5045.5,411.6c-9.2,1.6-17.6,2.9-26,4.6
			c-13.4,2.7-26.6,5.6-38.9,12.3c-7.7,4.2-16.3,5.3-25.2,3.9c-5.5-0.9-11.3-1.1-16.9-0.9c-13.3,0.5-26.6,1.1-39.9,2.3
			c-20.5,1.9-41.2,3.6-61.5,7c-11.6,1.9-23.1,3.1-34.7,2c-18.8-1.7-37.2-0.2-55.6,3.8c-4.8,1-10.1,1.5-14.8,0.5
			c-14.7-3-29-1.4-43.6,0.4c-28.4,3.5-56.4,10-85.2,10.3c-4.5,0-9.2,1.6-13.5,3c-10.9,3.5-21.7,5.7-33.3,3.1
			c-6.1-1.4-12.6-1.1-18.9-1.4c-11.3-0.6-22.5-1.2-33.8-1.5c-7.9-0.2-15.8,0.2-23.7,0.4c-4.6,0.1-9.2,0.6-13.7,0.3
			c-13.5-0.9-27-2.2-40.9-3.3c-0.7,2.6-1.5,4.7-1.9,7c-8.1,41.5-16.1,83-24.1,124.6c-7.3,38.2-18.4,75.8-20.9,114.9
			c-1,15-3.7,29.9-3.7,44.8c-0.1,29.3,1.2,58.6,1.6,88c0.1,7.3-0.4,14.7-1.5,21.8c-2.6,16.1-5.9,32.1-8.6,48.2
			c-0.6,3.8-0.4,8,0.5,11.8c4.1,17.2,8.7,34.2,13,51.3c0.8,3.1,1.3,6.6,0.9,9.8c-2.4,17.8-4,35.9-8.1,53.3
			c-3.5,15.2,0.1,25.9,10.9,37.1c19.1,19.9,36.4,41.7,54.6,62.5c3.7,4.3,6.8,8.2,3.5,14.1c-0.4,0.8-0.1,1.9-0.1,3.3
			c1.6,0.4,3.2,0.9,4.8,1c26.2,2.8,52.3,5.7,78.5,8.2c48.4,4.6,96.8,9.7,145.3,13.1c68.8,4.9,137.7,8.4,206.5,12.8
			c9.2,0.6,18.6,2.2,27.5,4.7c27.3,7.6,54.3,15.8,81.5,23.8c2.1,0.6,4.3,0.6,7,1c-0.1-2.1-0.1-3.4-0.3-4.7
			c-2.3-20.5-4.6-41-6.9-61.6c-4.3-38.1-8.8-76.1-13-114.2c-3-26.8-6.3-53.6-8.6-80.5c-3.6-42.5-6.6-85-9.7-127.6
			c-0.7-9.9-2.8-20,1-29.7c3.4-8.9,4.2-18,4-27.5c-0.1-5,0.3-10,0.7-15c4-45.8,8-91.6,12.3-137.4c1.1-11.9,1.9-24.2,5.7-35.3
			c15.4-45.8,31.3-91.4,52.4-134.9c4.4-9,8.2-18.2,12.3-27.3C5043.4,417.3,5044.2,414.9,5045.5,411.6z M2290.4,1083.5
			c-1.8-3.5-2.8-5.9-4.2-8.1c-12.3-18.6-24.7-37.1-37.1-55.7c-1.8-2.8-4.3-5.5-5.1-8.5c-5.9-22.8-14.3-45-15-69.1
			c-0.6-19.6-3.8-39.2-4.2-58.8c-0.8-43.3-0.6-86.6-0.8-129.9c0-0.7,0.2-1.3,0.2-2c2.4-26.9,4.9-53.7,7-80.6
			c3.4-42.8,6.8-85.7,17.3-127.5c5.4-21.8,6.8-44.1,8.5-66.3c0.2-2.2-0.2-4.5-0.4-6.9c-1.5,0-2.5-0.1-3.5,0
			c-22.4,3.1-44.8,7.1-67.3,9.3c-22.2,2.1-44.5,2.7-66.8,3.6c-26.3,1-52.7,2.8-78.9,1.9c-45.3-1.6-90.5-4.3-135.9-4.2
			c-20.3,0-40.6-1.6-60.8-3.7c-43.4-4.6-86.8-9.4-130.5-9.3c-11.9,0-23-2.3-34.1-6.4c-38.1-14.2-76.4-27.7-117.9-33.2
			c-1.9,4.7-3.3,9.5-5.8,13.6c-2.2,3.6-2.1,6.7-0.6,10.3c7.8,18.4,15.3,36.9,23.3,55.2c3,7,5.9,13.8,6.8,21.6
			c0.8,6.4,4.2,12.4,6.5,18.6c1.4,3.7,3.2,7.2,4,11c2.8,13.2,5.1,26.6,7.7,39.8c0.4,2.2,1.9,4.2,2.5,6.5c1.8,6.7,4.4,13.4,4.7,20.2
			c0.5,9.2-0.8,18.6-1.4,27.8c-1.3,21.2-1.4,42.3,1.8,63.5c2,13.6,2.1,27.6,1.3,41.6c-0.8,11.9-0.6,23.9-0.2,35.9
			c0.3,8.9,1.6,17.8,2.4,26.7c0.8,8.5,1.9,17.1,2.2,25.6c0.2,4.6-0.8,9.2-1.4,13.8c-0.5,3.5-1.4,7-1.9,10.5
			c-1.1,7.8,0.8,15.8-2.6,23.6c-2.2,5.2-2.9,11.5-2.6,17.2c0.6,11.3,3.7,22.6-1.1,33.8c-0.4,1,0.1,2.8,0.8,3.8
			c3.4,4.8,2.4,9.1-0.4,13.9c-1.2,2.1-0.8,5.2-1.1,7.8c-0.5,5-0.9,9.9-1.2,14.9c-0.5,8.4-1,16.9-1.2,25.3
			c-0.1,5.5-0.3,11.2,0.4,16.6c0.8,6.2,0.9,12.3,0.2,18.5c-0.3,2.4,1.3,5,2,7.5c0.5,1.7,0.9,3.5,1.4,5.6c-4.3,0.3-7.8,0.5-11.4,0.7
			c-2.8,16.9-7.9,32.7-9.4,49.8c2.9,0.2,4.9,0.6,6.8,0.5c11.6-0.7,23.3-1.4,34.9-2.4c16.3-1.4,32.6-2.3,48.7-4.9
			c42.1-6.7,84.1-13.7,126.7-17.2c34.2-2.8,68.2-7.5,102.3-10.9c16.5-1.6,32.9-5.4,49.7-4c18.6,1.5,37.2,2.4,55.9,3.2
			c10,0.4,20,0.1,30-0.1c21.3-0.4,41.6-3.8,59.3-17.2c8.2-6.1,17.4-5.5,26.5-0.9c7.4,3.8,14.7,7.8,22.4,11
			c5.4,2.3,11.2,4.1,17.1,4.9C2207.1,1077.2,2248.4,1075.2,2290.4,1083.5z M1917.1,460.5c2.6,0,6.2-0.1,9.8,0
			c21,0.5,42,0.2,62.9,1.7c43,3.2,85.9,2.4,128.8,0.5c19.3-0.9,38.7-0.4,57.9-2.6c28.8-3.2,57.3-8,86-12.3
			c9.3-1.4,16.1,4.4,15.5,13.9c-0.8,11.6-1.4,23.3-2.7,34.9c-0.9,7.9,3.5,11.5,9.9,15.8c0-9.8,0.2-18.4-0.1-26.9
			c-0.1-4.9-0.9-9.8-1.3-14.6c-0.8-9.2-2.2-18.3-1.9-27.5c0.2-4.6-0.5-8-3.9-10.4c-3.5-2.4-7.4-4.4-11.4-5.8
			c-8.5-3-17.1-3.3-26.4-2.6c-8.9,0.7-18.2-2.9-27.3-4.6c-0.3-0.1-0.7,0-1,0.1c-9.7,3.3-19.1-0.1-28.6-1.1c-3-0.3-6-1.2-8.9-1
			c-6.9,0.4-13.8,1.4-20.7,1.9c-8.8,0.6-17.7,1.3-26.5,1.2c-6.5,0-13.2-0.7-19.6-1.8c-5.6-1-10.9-2.6-16.6-0.6
			c-5.3,1.9-10.4,0.4-15.5-1.5c-4.6-1.7-9.6-3.2-14.3-3.2c-11.5,0.1-23,1.3-34.6,1.9c-8.5,0.4-17.1,1.3-25.6,0.7
			c-12-0.9-23.8-2.1-35.5,1.5c-2.1,0.6-4.7,0.6-6.8-0.2c-7.1-2.6-14.4-1.4-21.6-1.1c-6.2,0.3-12.3,1.4-18.7,2.1
			C1916.4,432,1909.5,445.3,1917.1,460.5z M2285.4,1011.4c0-6.3-0.2-12.2,0.1-18.2c0.2-4.6,0.2-9.5,1.8-13.7
			c3.6-9.6,4.2-19.4,4.2-29.5c0-70,0.2-140-0.1-209.9c-0.2-34-1.4-68-2.4-101.9c-0.1-2.8-0.9-5.9-2.5-8.1
			c-3.8-5.1-8.2-9.8-12.4-14.6c-4.8,6.2-7.3,13.8-5.6,22.9c0.6,3.1-0.7,6.5-1.2,9.8c-0.4,2.3-1.6,4.7-1.3,6.8
			c1.3,7.1-0.5,13-5.1,18.5c-1,1.2-1.4,2.9-1.8,4.5c-4.4,14.1-5,28.7-5.4,43.2c-0.2,7.9-1.1,15.1-5.9,21.4
			c3.5,6.7,5.3,13.3,3.4,20.5c-0.5,1.9-0.6,4-0.2,5.9c2,9.9-1.3,19-3.8,28.3c-0.9,3.3-1,7-0.5,10.4c1.1,7.2,3,13.9,2,21.6
			c-1.6,12-0.9,24.1,2.6,36.2c2.2,7.3,1.4,15.6,1.2,23.4c-0.3,9.9-2.1,19.8-1.8,29.6c0.3,7.1,2,14.5,5.1,20.9c3.7,7.8,4.8,15,1.8,23
			c-0.8,2.2-1.9,4.4-1.9,6.6c0.1,18,4.1,34.8,16.8,48.8C2276.7,1015.9,2280.4,1013.9,2285.4,1011.4z M4022,1125.6
			c50,2.6,97.9,4.7,146,5.3c-18.5-3.8-37-7.7-55.6-9c-25.5-1.7-51.1-1.4-76.7-2c-3-0.1-6-0.3-8.9,0.3
			C4025.4,1120.4,4024.5,1122.5,4022,1125.6z M2275.8,601.2c2.7-2,8.2-4.1,10.3-8c2-3.8,0.7-9.5,0.2-14.3c-0.4-4.4-1.8-8.7-2.7-13
			c-0.7,0.1-1.4,0.2-2.1,0.3c0,2.5,0.2,5,0,7.4c-0.4,3.9,0.1,8.5-1.9,11.4C2275.6,591.1,2275.8,597.4,2275.8,601.2z"/>
		<path d="M5714.6,2351c-22.4,1.9-43.9,3.6-65.4,5.6c-12.9,1.2-25.8,2.9-38.6-0.9c-1.9-0.6-4-0.6-5.9-0.6
			c-28.3-0.5-56.6-1.3-84.9-1.2c-29.9,0-59.8,1-89.7,1.3c-34.3,0.3-68.6,0.4-102.8,0.6c-18.6,0.1-37.2-0.1-55.8,0.1
			c-11.6,0.1-23.1,0.8-34.7,1.2c-5.3,0.2-10.4,0.2-15.4-2.8c-4.2-2.5-9.4-3.6-14.4-1.3c-11.3,5.2-23.4,4.2-35.3,4.6
			c-28.3,1-56.5,2-84.8,2.8c-10.9,0.3-21.8,0-32.7,0.3c-23.2,0.7-46.4,2.8-69.6,2.3c-28.9-0.7-57.8,2.6-86.6-0.1
			c-10.7-1-21.1-0.2-31.7,0c-12.6,0.3-25.2-1-37.8-1.2c-29.6-0.4-59.2-0.5-88.8-0.6c-4,0-7.9,0.8-11.9,1.1
			c-4.3,0.3-8.7,1.3-12.9,0.7c-23.2-3.5-46.5-0.8-69.8-1c-13.6-0.1-27.2-0.3-40.9-0.1c-37.9,0.6-75.9,1.3-113.8,2.1
			c-18.6,0.4-37.2,1.1-55.8,1.4c-4.6,0.1-9.3-1-13.9-0.9c-13.6,0.2-27.2,0.6-40.8,1c-24.6,0.8-49.2,1.6-73.8,2.4
			c-39.3,1.3-78.5,2.5-117.8,4.1c-26.9,1.1-53.8,3.1-80.7,4.2c-23.6,1-47.2,1.4-71.4,2.1c-1.7-4.2-3.3-7.7-4.6-11.4
			c-8-21.5-16.3-43-23.8-64.7c-7.8-22.8-17.6-44.5-29.6-65.4c-6.1-10.7-14.1-20-18.2-32.3c-3.9-11.8-11.4-22.5-17.6-33.5
			c-12-21.1-25.3-41.6-36-63.4c-5.5-11.3-13.4-20.1-20.5-29.9c-18.3-25.4-35.7-51.5-52.9-77.6c-10.7-16.3-21.2-32.7-27.5-51.5
			c-2.2-6.6-7.5-12.6-12.3-18c-9.4-10.6-16.4-22.6-21.2-35.9c-3.7-10.3-8.5-20.5-10.4-31.2c-3.1-18.3-5.6-37-6-55.5
			c-1.8-75,0.1-150,4.2-224.9c0.7-13,0.6-26,1.4-38.9c0.8-12.5,2.6-25,3.3-37.6c0.6-12.9,0.4-25.8,0.5-38.7
			c0.1-15.6,0.2-31.2,0.3-46.8c0.1-28-0.6-55.9-6.7-83.3c-0.7-3.2-2-6.3-3.4-9.3c-6.6-14.8-14.6-29.2-19.7-44.5
			c-3.7-11.1-7.3-22-13.2-32.1c-7-12.1-14.1-24.1-21.5-35.9c-7.8-12.4-15.9-24.6-24.2-36.7c-11.7-17-23.6-33.7-35.4-50.6
			c-2-2.9-3.6-6.1-6-10.2c3.6-0.3,5.8-0.5,7.9-0.8c12.2-1.3,24.4-3.3,36.6-3.8c31.9-1.2,63.7-1.2,95.6,0.5c24.2,1.3,48.5,1.9,72.7,3
			c19.9,0.9,39.9,3.4,59.7,2.6c21.8-0.8,43,3.6,64.5,4.8c7.6,0.4,15.2,1.2,22.9,1.8c2.6,0.2,5.1,0.7,8.1,1.1c0,5.8,0,11.1,0,16.7
			c2.3,0.5,4.2,1.1,6.1,1.2c49.3,2.1,98.6,4.2,147.8,6.4c37.6,1.7,75.3,2.7,112.8,5.7c22.2,1.8,44.4,3.4,66.7,4.7
			c44.2,2.7,88.3,6,132.2,12.6c23,3.5,46.4,4.6,69.6,6.7c41.8,3.8,83.6,7.7,125.4,11.3c21.2,1.8,42.5,3.2,63.8,4.4
			c50.6,3,101.1,5.8,151.7,8.9c6.3,0.4,12.6,1.6,18.6,3.4c30.1,8.6,60.1,17.4,90.1,26.4c9.5,2.8,18.8,6.5,29.5,10.2
			c-3.5-25.9-6.9-50.7-10.6-78c5.4,2.6,9.4,3.6,12,6c10.4,9.9,23.9,13.7,36.3,19.8c5.3,2.6,10.1,6.2,14.9,9.7c7.7,5.7,15,12,23,17.4
			c11.7,7.8,24.1,14.7,35.8,22.6c6.5,4.4,12.1,10.2,18.2,15.2c2.8,2.3,6,4.1,9,6.2c1.1,0.7,3,1.6,3,2.3c-0.4,7.9,6.5,9.2,11,12.2
			c22.5,14.9,45.1,29.6,67.8,44.2c4.1,2.6,8.8,4.6,13.5,6.1c5.7,1.8,10.8,4,15.8,7.7c7,5.2,15.3,9.2,23.5,12.2
			c5.8,2.1,10.8,4.7,15.6,8.4c16,12.5,32.3,24.5,48.2,37.2c11.9,9.6,23,20.2,35,29.8c12.9,10.4,26.5,20,39.6,30.1
			c17.6,13.6,35.3,27.1,52.4,41.3c16.9,14,35.2,26.1,53.5,38.1c8.1,5.3,16.1,10.5,22.2,18.3c3.2,4.1,7.8,7.2,12.2,10.2
			c20.8,13.9,38.6,31.5,57.5,47.7c22.3,19.2,44.5,38.6,68.4,55.8c12.6,9.1,24.4,19.4,36.9,28.8c8,6,16.5,11.2,24.7,16.8
			c4.8,3.3,6.7,8.2,9.2,13.5c5.1,11.2,2.9,21.8,2.1,33c-1.3,18.5-1,37.2-1.4,55.8c-0.5,22-0.7,43.9-1.6,65.9
			c-1.1,26.6-2.6,53.2-4.2,79.8c-0.4,7.3-2,14.5-2.8,21.8c-1.8,14.8-3.7,29.7-5.3,44.6c-2.1,20.8-3.9,41.7-6,62.6
			c-1.8,17.9-4.4,35.7-5.4,53.6c-1.6,27.3-6.1,54.2-9.2,81.3c-1.9,16.8-2.9,33.8-4.7,50.7c-2.6,24.8-5.4,49.6-11.7,73.8
			C5715.8,2349.1,5715.1,2350,5714.6,2351z M4728.3,1205.3c0.1,0.8,0.3,1.5,0.4,2.3c4.1-0.7,8.2-1.4,12.3-2.2
			c-0.2-0.8-0.3-1.6-0.5-2.4C4736.5,1203.7,4732.4,1204.5,4728.3,1205.3z M3763.4,1335.7c0.5-0.1,1.1-0.2,1.6-0.3
			c-0.5-2.7-1-5.4-1.5-8.1c-0.7,0.2-1.4,0.4-2.1,0.5C3762,1330.5,3762.7,1333.1,3763.4,1335.7z"/>
		<path d="M3302.3,1054c-2.7,7.3-5.1,13.8-8,21.6c13.9,4.1,26.6,10.3,40.4,11.7c45.7,4.6,91.5,8.6,137.4,12.4
			c44.2,3.6,88.1,9,131.8,16.3c4,0.7,7.3,1.8,9.7,5.8c8.7,14.5,17.9,28.8,27.2,43c2.6,4,7,6.9,9.8,10.8c4.4,6.2,8.1,13,12.3,19.4
			c10.8,16.4,22.2,32.4,32.4,49.2c8.1,13.3,15.9,26.7,19.6,42.3c1.9,7.9,6,15.4,9.3,22.9c4.7,10.7,11.1,21,14.2,32.1
			c3.4,12.3,5.2,25.4,5.5,38.3c0.7,25.5-0.1,51.1-0.1,76.6c0,11.2,0.9,22.5,0.7,33.7c-0.2,12-1.1,23.9-1.8,35.9
			c-4.6,74.8-7.8,149.7-8,224.6c-0.1,31.3-0.7,62.7,3.4,93.8c0.1,0.6-0.3,1.3-0.7,3.1c-6.5,0.3-13.4,0.8-20.2,1
			c-9,0.2-18.1-0.6-26.9,0.5c-11.4,1.4-21.7-1.3-32.2-4.6c-5.3-1.7-10.9-2.9-16.5-3.4c-10.2-1-20.7-2.8-30.7-1.6
			c-31.6,3.8-63.2,2.5-94.7,2.1c-37.3-0.5-74.5,2.4-111.7,3.5c-14.6,0.4-29.3-0.9-43.9-1c-33.9-0.2-67.9-0.7-101.8,0
			c-37.3,0.7-74.5,2.8-111.7,3.9c-16.9,0.5-33.8,0.1-50.7,0.1c-43.3,0-86.5-0.4-129.8-0.1c-44.2,0.3-88.4,1.6-132.6,1.7
			c-58,0.1-115.9-0.7-173.9-0.7c-30,0-60.1-0.9-89.9,1.5c-26.1,2.1-51.8-0.8-77.7-1c-16.6-0.1-33.1-0.5-49.7,2.6
			c-10.7,2-22.4,0-33.4-1.4c-12-1.5-23.7-3-35.2,2.5c-4.5,2.2-9.4,2.2-14.5,0.5c-5.3-1.7-11.1-2.2-16.7-2.5
			c-3.7-0.2-6.7-1.2-8.1-4.5c-2.7-6-6.2-12-7.2-18.3c-1.7-11.5-2.4-23.2-2.5-34.8c-0.8-73.6-1.6-147.2-2-220.8
			c-0.2-31.3,0.8-62.6,0.4-93.8c-0.3-30.9-1.1-61.9-2.8-92.8c-0.8-15.2-4.6-30.2-6.2-45.4c-0.9-8.5-0.6-17.2-0.1-25.7
			c0.6-9.3,2.1-18.5,3-27.8c1.7-17.5,2.8-35.1,4.9-52.6c3.6-29.7,7.3-59.4,11.8-89c1.1-7,5.2-13.5,8.1-20.1
			c4.6-11,3.4-21.6,0.7-33.1c-2.2-9.3-0.4-19.6-0.4-29.4C2350.9,1060.6,3285.8,1052,3302.3,1054z"/>
		<path d="M814.7,1814.8c-1.3-8-2.9-15.4-3.5-23c-1.6-20.9-2.8-41.8-4.2-62.7c-1.7-25.5-4-51.1-5.3-76.6
			c-1.9-37.2-3.4-74.5-4.6-111.8c-1-31.3-1.5-62.6-2.1-93.8c-0.7-38.3-1.1-76.6-1.9-114.9c-0.3-17.9-1-35.9-1.6-53.8
			c-0.2-5.1,0.4-10,3.9-14c5.7-6.7,9.1-15,16.2-20.9c4.4-3.7,6.6-9.9,9.7-15c1-1.7,1.5-4.6,2.9-5.1c11.7-4,13.7-16.3,21.1-24.1
			c7.2-7.6,11.9-17.6,18.5-25.9c7.4-9.4,15.3-18.4,23.7-26.9c3.7-3.8,6-7.4,6.6-12.7c0.9-8.9,5.9-14.2,14.9-15.8
			c36.3-6.4,72.4-13.5,109.5-15c39.5-1.5,79-4.5,118.5-7.5c23.9-1.8,47.6-5.2,71.4-7.4c29.1-2.6,58.3-4.8,87.5-6.9
			c28.9-2.1,57.8-3.9,86.6-6.1c23.5-1.8,47-4.1,70.6-5.9c28.2-2.2,56.3-4,84.5-6c9.9-0.7,19.8-1.8,29.8-2.5c2.2-0.2,4.4,0.5,7.6,0.9
			c-2.2,11.3-3.6,22.3-6.6,32.7c-3.7,12.7,0.4,24.2,2.4,36.9c8.3-0.6,15.9-1,23.4-1.6c29.8-2.7,59.7-4.9,89.5-8.3
			c19.5-2.3,38.7-6.9,58.2-9.4c25.4-3.3,51-5.4,76.5-8.2c39.1-4.2,78.1-8.7,117.2-12.9c5.9-0.6,12-0.8,17.9-0.5
			c21.3,1,42.6,3.2,63.9,3.2c20.6,0,41.2-1.9,61.8-3.9c4.9-0.5,9.8-3.9,14.4-6.5c21.5-12,18.4-14.3,41.6-1.1
			c16.3,9.3,33.8,9.4,51.1,11.2c21.9,2.2,43.8,3.4,65.8,4.9c13.3,0.9,26.4,2.7,39,7.3c4.5,1.7,9.7,1.5,14.8,2.2
			c6.7-6.8,11.7-14.1,7-24.7c0.8,0,1.6,0.1,2.4,0.1c0.7,3,2.2,6,2,8.9c-0.7,15.9-1.4,31.9-3,47.8c-2.3,22.2-5.3,44.3-8.1,66.4
			c-0.7,5.9-1.9,11.8-2.7,17.7c-0.6,5.2-1,10.5-1.4,15.8c-0.2,2.7,0.2,5.4-0.1,8c-2.8,23.1-6.1,46.1-8.4,69.3
			c-0.8,8.5-0.3,17.3,1,25.7c3.2,21.4,6.8,42.6,7,64.4c0.3,39.3,1.4,78.5,1.7,117.8c0.3,51.9,0.1,103.9,0.3,155.8
			c0.2,32,0.9,63.9,1.3,95.9c0.2,16.7-6.9,24.2-23.8,25.1c-21.3,1.1-42.6,1.5-63.7-2.1c-15.3-2.6-30.5-0.1-45.7-0.1
			c-0.7,0-1.3,0.2-2,0.2c-29.3,0.6-58.6,1.3-87.8,1.8c-25.9,0.5-51.8,1.2-77.7,1.2c-26.6,0-53.3-1.1-79.9-0.9
			c-34.3,0.2-68.6,0.9-102.8,2.1c-35.2,1.2-70.4,4-105.7,4.7c-31.2,0.6-62.4-0.6-93.6-1.2c-24.6-0.5-49.2-1.3-73.8-2
			c-14.9-0.4-29.8-1.1-44.7-1.5c-4.7-0.1-9.3,0.2-14,0.2c-6.9,0-13.9,0-20.8-0.1c-2.3,0-4.7-0.2-7-0.1c-42.6,1.2-85.1,2.4-127.7,3.5
			c-4.6,0.1-9.3-0.9-13.9-0.9c-7.6,0-15.3-0.2-22.8,0.8c-14.3,1.8-28.4,2.9-42.8,1c-8.5-1.1-17.3-0.9-25.9-0.3
			c-46.9,3.1-93.8,4.2-140.8,4.2c-16.6,0-33.2-1.9-49.8-2.1c-39.2-0.5-78.4-1.3-117.5-0.5c-25.9,0.5-51.7,3.7-77.5,5.3
			C833.9,1815.3,824.6,1814.8,814.7,1814.8z"/>
		<path d="M841,359.8c5.9,8.9,10.7,16,15.3,23.3c2.3,3.6,4,7.7,5.8,11.5c0.9,1.8,1.1,4.8,2.4,5.3c7.5,2.9,6.9,10,8.5,15.7
			c5.8,21.2,11.2,42.5,16.8,63.7c3.3,12.4,7.6,24.7,9.7,37.3c2.1,13,3.7,26.1,2.4,39.5c-0.6,5.7,1.6,11.6,2.1,17.4
			c1.1,11.4,2.2,22.8,0.3,34.4c-0.9,5.6-0.6,11.9,1.2,17.2c3.8,10.9,1.5,21.5,0.8,32.3c-0.5,8.5-1.8,17-2.6,25.5
			c-0.1,1.3-0.2,2.8,0.2,4c2.9,8-0.8,14.7-4.4,22c7,4.5,4.4,11.9,4.2,18.1c-0.3,9.1-2.8,18.1-3.1,27.2c-0.7,18.9-2.8,37.6-5.5,56.3
			c-0.3,2.3-0.8,4.7-0.3,6.8c1.4,5.4,1.2,10.3-1.4,15.4c-2.1,4.2-3.4,8.9,0.9,11.4c-0.9,3.7-1.9,6.6-2.3,9.4c-0.5,4.5,0,9.1-1,13.5
			c-2.2,9.6-3.5,18.9-0.7,28.7c0.9,3-0.3,6.9-1.5,10.1c-2.4,6.3-0.5,13.3-4,19.6c-0.9,1.7,1.4,5.2,2.3,8c-2.8,4.2-5.9,8.6-2.1,14.2
			c0.6,0.9,0.7,2.8,0.2,3.7c-1.6,2.9-5.1,5.5-5.2,8.3c-0.1,2.7,3.4,5.1-0.6,8.3c-1.6,1.3-2.3,5.1-1.8,7.3c3.4,14-1.5,27.7-1.3,41.6
			c0.1,3.7-1.8,7.5-2.8,11.2c-2.6,9.7-1.5,20.1-5.2,29.7c-0.5,1.3,1.6,3.4,1.6,5.2c-0.1,10.1,1.5,20.2-2,30.1
			c-0.9,2.5-0.3,5.6-0.2,8.5c0,1.2,0.7,2.5,0.5,3.6c-1.6,7.3-4.3,14.6-4.9,22c-0.9,11.2-9.3,18-14.3,26.7
			c-9.2,16-19.9,31.1-29.9,46.5c-13.4,8.2-17.2,24.1-27.9,34.7c-7.8,7.8-12.9,18.5-18.4,28.3c-2.2,3.9-2.7,8.9-3.2,13.4
			c-3.9,31.7-7.8,63.5-11.2,95.3c-1,9.6-0.7,19.3-0.5,28.9c0.8,28.6,2,57.2,2.6,85.8c0.5,23.9,0.4,47.8,0.4,71.7
			c0,14.6-1.3,29.1,1.8,43.6c0.3,1.5,0,3.3-0.5,4.9c-3.2,10.8-3.1,21.4,0.4,32.1c0.9,2.8,0.8,5.9,1,8.9c2.4,43.2,4.6,86.3,7,129.5
			c1.2,22.3,2.6,44.5,4.2,66.8c0.9,12.3,2.5,24.5,3.8,37.2c-3.7,1.7-7.3,1.1-11-0.6c-4.6-2-9.2-3.7-13.9-5.3
			c-7.2-2.5-14.1-1.3-19.4,4c-3.5,3.4-7.1,4.1-11.6,4.2c-6.3,0.1-12.6,0.9-18.9,1.2c-3.3,0.2-6.9,0.8-9.9-0.2
			c-9.5-3.1-19.1-1.9-28.7-1.6c-36.3,1.2-72.6-0.1-108.8-2c-15-0.8-29.9-1.7-44.9-2.3c-6.3-0.2-12.6,0.4-18.9,0.2
			c-17-0.4-33.9-1-50.9-1.4c-4.3-0.1-8.6,0.2-12.9,0.2c-20.6,0.1-41.1,0-61.7,0.2c-14.3,0.2-28.6,1.1-42.9,1
			c-11.3-0.1-22.5-1.4-33.7-1.6c-4.9-0.1-9.9,1.2-14.8,1.5c-4,0.2-8,0.1-11.9-0.2c-3.3-0.3-6.6-1.7-9.8-1.5
			c-8.4,0.4-14.5-1.3-16.8-11c-1-4.1-6.4-7.2-7.5-11.3c-1.6-5.9-1.7-12.5-1.1-18.6c0.6-6,0-11.5-3.5-16.1
			c-6.4-8.2-6.6-17.9-7.3-27.4c-1-13.8-1.1-27.7-2.2-41.5c-1-13.5-3.4-27-3.9-40.6c-0.7-17.5,0-35.1,0.1-52.7c0-1.3,0.4-2.7,0.2-4
			c-1.9-15.4,0-31.1-3.6-46.4c-1.1-4.8-1-9.9-0.9-14.9c0.3-15.9,1-31.9,1.3-47.8c0.1-6.9-0.8-13.9-1-20.8c-0.4-18.6-0.4-37.1-1-55.7
			c-0.5-16.6-1.6-33.1-2.6-49.6c-0.8-13.6-1.7-27.2-2.7-40.8c-1.7-21.5-3.6-43.1-5.2-64.6c-0.7-10.2-0.8-20.5-1.2-30.8
			c-0.1-2.3-0.6-4.6-1.1-6.8c-1.2-6.5-2-12.6,1.7-19.2c2.3-4.1,2.2-10.5,1.2-15.4c-1.6-8.1-1.8-15.6,2.1-23.1
			c4.2-8.3,1.7-16.4-2.3-23.8c-3.6-6.6-4-12.7-1.9-20c2.7-9.2,3.3-18.6-1.1-28.2c-2.2-4.8-1.5-10.9-1.9-16.5
			c-0.8-11.3-1.7-22.5-2.2-33.8c-0.5-13.6-0.5-27-2.9-40.6c-2.2-12.3-0.7-25.2-1-37.8c-0.2-9.3-0.8-18.5-1.2-27.8
			c-0.2-3.7-0.6-7.3-0.8-11c-1.4-21.9-3.2-43.8-4.1-65.7c-0.9-21.9-0.9-43.8-1.4-65.7c-0.1-6.3-0.4-12.6-0.8-18.9
			c-0.5-7.6-1.5-15.2-1.6-22.8c-0.3-21.6-0.6-43.2,0-64.7c0.4-16.2,2.3-32.3,3.5-48.4c0.2-3,0-6,0.2-9c0.5-7.6,0.8-14.8,5.5-21.8
			c4.3-6.4,6.6-14.3,9-21.8c1-3.2,0.8-7.2,0.1-10.6c-1.2-5.5,0.4-9,4.5-13.1c17.9-17.7,39-31.2,59.4-45.5c3.3-2.3,8.4-3.4,8.3-9
			c0-0.5,1.3-1.4,1.9-1.3c7.1,0.6,11.3-4.6,16.3-8.1c5.4-3.8,10.6-8,16-11.9c41.9-30.9,88.7-54.1,131.1-84.1
			c26.8-19,55.2-34.7,85.1-48c9.7-4.3,20-7.1,30-10.7c5.9-2.1,12-4.1,17.7-6.8c2.9-1.4,6.5-3.8,7.2-6.5
			c2.8-10.4,11.7-10.7,19.5-12.5c9.3-2.1,18.9-2.9,28.3-4.7c2.8-0.5,6.1-1.9,7.8-4c3.6-4.3,8-4.8,13.1-5.3
			c38.6-4.3,77.2-1.1,115.8-1.7c14.5-0.2,29.1,2.7,43.6,3.9c5.2,0.4,10.5-0.1,15.8-0.1C824,359.8,832.9,359.8,841,359.8z
			 M894.3,690.2c0,7,0,12,0,17.1C897.9,702.2,898.6,697.1,894.3,690.2z"/>
		<path d="M5730.5,1666.5c-14.2-10.3-26.6-19.2-38.8-28.3c-6.7-4.9-13.4-10-19.7-15.3c-5.3-4.5-10.1-9.6-15.1-14.4
			c-2.6-2.5-5.2-5.1-8-7.5c-10.7-9-21.3-18-32.1-26.7c-10.8-8.8-22-17.2-32.8-26.1c-6.9-5.7-12.9-12.5-20.1-17.8
			c-13.9-10.2-28.5-19.5-42.6-29.4c-8.9-6.3-17.6-13.1-26.2-19.8c-21-16.4-41.8-32.9-62.8-49.3c-19.1-14.9-39.4-28.4-56.8-45.5
			c-7.1-7-15.4-12.6-23.4-18.7c-17.5-13.3-34.7-27-52.7-39.6c-21.8-15.4-44.5-29.4-71.3-34.6c-1.9-0.4-3.9-1.3-5.3-2.5
			c-15.1-14-29.9-28.4-45.3-41.9c-6.9-6-15.5-10.2-22.9-15.6c-18.8-13.7-37.4-27.6-56-41.7c-7.1-5.4-14.8-10.2-19.3-18.4
			c-1-1.8-3.6-2.8-5.6-4c-14.7-9-29.8-17.4-43.9-27.2c-9.4-6.5-17-15.1-18.6-27.6c-0.5-4.2-4-8-6-12c-4.4-8.8-5-18.4-5.7-28
			c-0.5-6.6-1.4-13.2-2.1-19.8c-1.1-10.2-2.8-20.4-3.4-30.7c-1.7-27.9-2.9-55.9-4.5-83.9c-0.5-8.3-1.3-16.6-2.6-24.7
			c-1.5-9.1,1-18.5-3.2-27.3c-0.7-1.5,0.6-3.8,0.8-5.8c0.3-3.3,1.2-6.7,0.7-9.9c-3-20.1-3.7-40.3-3.7-60.5c0-19.2-1.5-38.4-1.7-57.6
			c-0.2-18.3,0.4-36.6,0.7-55c0-1.7,0-3.4,0.7-4.9c9-21.8,6.9-45.2,10-67.9c1.2-9.2,1.4-18.6,2.5-27.9c0.5-3.9,1.8-7.7,3-11.5
			c20.6-64.9,49.1-126.6,77.1-188.5c1.6-3.5,2.7-7.1,4.5-12.1c-10.6,1.1-19.5,1.6-28.3,3.1c-8.7,1.5-17.2,4.1-26.9,6.5
			c3-8.1,5.4-14.9,8.2-22.6c16.3,2.9,31.5-3.1,47.9-1c17.9,2.3,36.5,0,54.8-0.3c4.3-0.1,8.7,0.3,13-0.3c11.8-1.6,22.2,3,32.9,6.4
			c0.6,0.2,1.3,0.5,1.8,0.9c8.8,9.2,20.7,12.2,31.9,16.7c2.8,1.1,5.6,1.9,8.5,2.9c4.7,1.6,9.4,2.7,11.8,8.1c1.1,2.5,4,4.8,6.6,5.8
			c9,3.4,18.2,6.4,27.4,9.1c8.6,2.5,17.6,3.6,25.9,6.7c10.8,4,20.6,10.1,29.3,17.9c3,2.7,7.3,5.5,11.1,5.8
			c10.8,0.7,20.8,3.4,30.6,7.9c4.2,1.9,8.8,3,13.2,4.4c9.5,2.9,19.1,5.3,28.4,8.7c6.8,2.4,13.2,6.1,19.8,9c4.5,2,9.3,5,13.9,4.9
			c7.5-0.2,12.3,3.7,17.7,7.5c0.8,0.6,1.4,1.7,2.2,2c11.1,3.9,21.2,10,31.8,14.9c7.5,3.5,15.6,5.5,23.4,8.4c7.1,2.7,14.2,5.4,21,8.7
			c3.8,1.8,6.9,5.3,10.8,7c10.6,4.5,21.6,8.4,32.3,12.7c2.4,1,4.3,2.9,6.5,4.3c2.7,1.8,5.5,5,8.3,5.1c13,0.4,23.8,7.9,36,10.6
			c6.7,1.5,13.1,4.6,19.6,7.1c22.9,8.9,45.6,18.3,66.9,30.7c6.8,3.9,15,5.4,22.1,8.8c12.9,6.2,25.5,13,38.1,19.8
			c2.2,1.2,3.8,3.6,5.9,5.3c2.8,2.3,5.4,5.3,8.6,6.4c5.7,1.9,6.8,5.6,6.4,10.8c-1.1,14.9-2.1,29.8-2.9,44.7
			c-0.8,14.5-1.2,29.1-1.8,43.7c-0.9,21.6-1.9,43.1-2.9,64.7c-0.9,20-1.7,39.9-2.8,59.9c-1.8,32.2-3.8,64.4-5.9,96.6
			c-1.9,28.5-4,57.1-6,85.6c-2.8,40.2-5.7,80.3-8.5,120.5c-1.8,26.2-3.5,52.4-5.5,78.6c-1,12.9-2.7,25.8-4.1,38.7
			c-1.9,17.2-2.9,34.5-6,51.5c-5.8,31.9-6.9,64.1-9.4,96.3c-2.1,28.2-1.9,56.6-3.3,84.8c-2,41.2-4.5,82.4-6.8,123.6
			C5731.4,1652.2,5731,1658.4,5730.5,1666.5z"/>
		<path d="M4449.7,348.5c-7.6,17.6-13.7,33.4-21.2,48.6c-16.6,33.8-26.3,69.4-33.1,106.3c-10.1,55.7-22.3,111-33,166.5
			c-2.8,14.7-3.1,29.8-5.2,44.6c-4.9,35.2-2.2,70.6-1.3,105.8c0.5,20.8-0.3,41.4-5.5,61.4c-5.6,21.7-5.5,42.6,2.5,63.5
			c0.4,0.9,0.3,2,0.7,2.9c8.1,19.6,6.8,39.5,2.9,59.7c-2.7,14-4.4,28.3-6.5,42.5c-1.2,8.6,2.5,15.4,8,21.7
			c18.7,21.3,37.2,42.7,55.8,64.1c2.5,2.9,4.7,6,8.1,10.3c-4.1,0.3-6.3,0.7-8.5,0.6c-21.6-1.1-43.3-1.6-64.9-3.8
			c-15.5-1.6-30.8-5.3-46.1-8.6c-60.6-13.1-121.8-22.4-182.9-32.5c-2.3-0.4-4.6-0.4-7-0.4c-26-0.6-52-1.8-78-1.6
			c-20.2,0.1-39.8-2.5-59.3-7.3c-10.3-2.6-20.7-5.1-31.2-6.9c-7.8-1.4-15.9-2.5-23.7-2.2c-81.7,3.9-163.3-1.4-244.9-2.2
			c-1.3,0-2.7,0.1-4-0.1c-19.1-2.2-37.1,1.4-53.8,10.9c-6.8,3.9-13.8,4.1-21.2,2.7c-50.5-9.7-101.7-13.3-152.8-17.8
			c-35.5-3.1-71-6.4-106.5-9.8c-4.5-0.4-8.9-2.1-14.7-3.5c2.3-2.5,3.5-4.3,5.1-5.6c13.3-10.6,26.5-21.3,40-31.6
			c5.6-4.3,9-9.3,10.9-16.1c12.6-44.5,25.4-89,38.2-133.4c2.5-8.7,4-17.4,3.1-26.6c-3.2-33,0.5-65.8,4.3-98.6
			c2.5-22.2,5.8-44.3,6.7-66.6c0.8-17.2-1.2-34.6-2.5-51.8c-2-26.6-4.6-53.1-6.7-79.7c-0.2-3.2,0.5-6.6,1.5-9.6
			c2.6-7.5,2.9-14.9,0.9-22.6c-1.3-5.1-2.3-10.4-2.9-15.7c-1.1-10.3-3.9-19.9-7.9-29.6c-7.8-18.7-12.5-38.6-15.7-58.7
			c-4.9-30.2-9.3-60.5-13.9-90.8c-0.2-1.3,0-2.6,0-4.7c5,0,10-0.6,14.7,0.1c27.1,3.8,53.5,10.3,78.9,20.9c8.7,3.6,18.6,5,28.1,5.9
			c41.5,3.9,82.7,8.7,123.4,18c15.2,3.5,30.3,7.5,45.6,10.6c6.1,1.3,12.5,1.2,18.8,1.2c7.6,0,15.2-1.1,22.8-0.8
			c19.6,0.7,39.2,2.4,58.9,2.9c19.6,0.5,39.3-0.1,59,0.2c10.3,0.2,20.5,1.4,30.8,1.9c12.3,0.7,24.6,1.9,36.8,1.5
			c53.3-1.5,106.6-3.3,159.9-5.4c53.3-2.1,106.5-4.7,159.8-7.1c32.3-1.5,64.6-3,96.9-4.4c21-0.9,42-1.5,62.9-2.8
			c7.6-0.5,15.1-2.4,22.5-4.3c11.9-3,23.7-6.6,35.6-9.9C4441.9,350,4444.8,349.5,4449.7,348.5z"/>
		<path d="M3378.3,422.3c1.8,9.4,3.6,18.4,5.5,28.4c-4.1,0.3-7.6,0.6-11.8,1c1.6,4.9,5.9,7.2,9.3,9.7c10.8,7.7,17.6,16.8,17.8,31.1
			c0.2,11,3.6,22,5.6,33.1c0.2,1,0.5,2,0.3,3c-3.8,19.7,2.2,39,3.1,58.4c0.8,18.6,2.8,37.2,3.3,55.8c0.6,23.6-0.3,47.3,0.2,71
			c0.6,29.4-1.2,58.5-6.4,87.5c-6.4,35.4-11.6,71-17.6,106.4c-1.4,8.2-3.9,16.2-6.2,24.2c-7.2,25.3-14.6,50.5-21.6,75.9
			c-1.5,5.4-3.8,8.5-9.4,10c-12.2,3.2-24.1,7.9-36.4,10.5c-9.7,2.1-19.8,2.5-29.7,2.8c-80.9,2.4-161.8,4.5-242.6,6.9
			c-137.9,4-275.8,8.1-413.8,12.2c-49.6,1.5-99.3,3-148.9,4.7c-5.2,0.2-9.2-1.3-12.5-4.7c-8.2-8.5-18.1-10.4-29.8-10.1
			c-40,1.2-80,1.2-121.3,1.7c0-2.8-0.1-5.7,0-8.5c2.3-38.6,5-77.1,6.9-115.8c1.9-38.3,6.8-76.4,4.8-114.8
			c-2.2-42.3-4.6-84.5-6.9-126.8c-0.2-3.7-0.2-7.3-0.1-11c1.4-50.3,2.5-100.6,4.4-150.9c0.6-15.6,3.6-31.1,5.7-46.6
			c1.4-10.2,3-20.4,4.4-29.8c5.5-2.9,10.1-5.4,14.8-7.8c13.5-6.8,28.2-7.5,42.9-7.8c64.6-1,129.3-1.9,193.9-2.9
			c40.7-0.6,81.3-1.3,122-2c51.6-0.8,103.3-1.7,154.9-2.2c45.6-0.5,91.3-1,137-0.6c82.6,0.8,165.3,2.2,247.9,3.7
			c41,0.8,81.9,2.4,122.9,3.7C3373.1,421.7,3375.3,422,3378.3,422.3z"/>
		<path d="M849,287.2c14.7,0.5,27.6,3.7,40.4,7.1c9.6,2.6,19.4,4.9,29,7.5c14.1,3.9,28.2,7.9,42.2,11.8c2.2,0.6,4.4,1.4,6.7,2.1
			c12.9,3.8,26.8,3.8,39.1,11c5.2,3.1,12.9,2,19.5,2.5c9.3,0.7,18.6,0.9,27.8,1.7c10.6,0.9,21.2,1.9,31.8,3.3
			c22.1,2.8,44.2,5.9,66.3,8.6c5.3,0.7,10.6,1,15.9,0.8c21.3-0.5,42.6-1.4,63.9-1.8c6.6-0.1,13.4,0.1,19.8,1.5
			c14.7,3.3,29.2,0.1,43.8-0.2c10.6-0.3,21.2-1.7,31.8-2.8c26.2-2.6,52.3-6,78.5-7.7c17.5-1.1,35.3-0.2,52.9,0.4
			c11.8,0.4,23.3,0.2,33.8-6.1c11.3-6.8,24.1-7.2,36.6-8.9c18.1-2.4,36.3-4.3,54.5-6.8c26.4-3.6,52.9-6.5,79.1-11.4
			c29.4-5.5,58.4-13.2,87.7-19.4c17.5-3.7,35.3-6.5,53-9.6c7.9-1.4,15.7-3,22-8.5c12-10.4,26.1-17.3,41.2-21.9
			c19.1-5.8,38.4-11,57.6-16.4c1.2-0.3,2.5,0,4.3,0c-5.1,29.7-11.9,58.3-25.5,84.9c-3,5.9-4.8,12.4-7,18.6c-0.4,1.2-0.2,2.9-0.9,3.9
			c-9.1,13-4.8,26.7-2.4,40.4c2.8,15.4,5.8,30.8,4.8,46.5c-0.2,3.3-0.6,6.6-1.5,9.8c-2.3,8.5-4.2,16.9-0.5,26.1
			c-2.6,0.4-4.4,1-6.2,0.9c-6.6-0.6-13.1-1.5-19.7-2.1c-8.6-0.8-17.2-1.7-25.8-2.1c-17.3-0.8-34.5-1.8-51.8-1.8
			c-10.1,0-19.8-1.5-29.6-3.5c-16.5-3.4-33.2-6.2-49.6-10.1c-6.3-1.5-12.2-5-18-8c-13.9-7-29.3-8.4-44.1-11.9
			c-5.1-1.2-10.4-2.5-14.9-5c-9.7-5.5-19.6-7.4-30.6-5.7c-3.4,0.5-7.2-0.6-10.6-1.8c-8.7-3.1-16.8-2.6-25,2.1
			c-2.7,1.6-6.2,2-9.4,2.6c-10.5,1.8-17.8,7.1-20.5,17.7c-0.3,1.3-0.5,2.8-1.3,3.7c-8.2,10.5-6.3,21.8-2.5,33.2
			c3.8,11.3,7.2,22.8,11.9,33.7c3.5,8.2,9.1,15.5,13.2,23.4c1.8,3.4,2.7,7.4,3.6,11.2c2.1,9.1,3.6,18.3,9.2,26.2
			c1.3,1.8,1.7,4.3,2.1,6.5c2,11.4,3.7,22.9,6,34.3c1.1,5.1,3.8,9.9,5.2,15c1.3,5,2.6,10.3,2.5,15.4c-0.2,26.6-3.6,53.1-0.3,79.7
			c1.7,13.8,2.7,27.8,3.5,41.7c0.4,6.6-1,13.2-0.8,19.8c0.7,21.9,1.7,43.8,2.7,65.6c1,22.6-2.6,44.7-6.2,66.9
			c-0.7,4.2-0.3,8.5-0.4,12.8c-0.2,7.8-0.4,15.6-0.6,23.4c-0.1,3.9-0.1,7.8-0.3,11.7c-0.5,9.6-0.6,19.2-1.7,28.7
			c-1.6,13.2-3.5,26.2-0.9,39.5c1.2,6.3,0.2,13.1,0.2,21c-8.2,0.5-16,1-23.8,1.6c-26.8,2-53.7,4-80.5,6c-28.2,2.1-56.4,4.1-84.6,6.3
			c-11.9,0.9-23.9,2.1-35.8,3c-34.2,2.6-68.4,4.8-102.5,7.6c-21.9,1.8-43.6,4.6-65.5,6.7c-13.6,1.3-27.2,2.3-40.8,3.4
			c-29.8,2.5-59.6,5.2-89.5,7.3c-24.9,1.8-49.9,2-74.7,4.4c-20.1,1.9-40.1,5.9-60.1,9.3c-11.4,1.9-22.8,4.3-35.7,6.8
			c-0.3-4.3-1-8.4-0.8-12.5c0.2-6.6,0.5-13.3,1.7-19.8c1.3-7-0.2-14.3,4.3-21c1.9-2.8,1.8-8,0.7-11.5c-2-6.1-0.8-11.6,0.3-17.6
			c1.4-8.4,1.1-17.1,2.1-25.6c1.3-11.2,2.9-22.4,4.8-33.4c1.9-11,6.2-21.6,3.7-33.3c-0.9-4,0.8-8.5,1.1-12.8
			c0.7-9.2,1.3-18.5,2.1-27.7c0.9-10.2,2.1-20.3,3-30.5c0.9-10.2,1.5-20.4,2.2-30.6c0.6-8.2,1-16.5,1.7-24.7
			c1.6-18.1,3.7-36.2,5.1-54.4c1.1-14.1,1.9-28.2,2.5-42.3c0.7-17.1-0.7-34.3,1.5-51.5c1.6-13-0.5-26.4-0.9-39.7
			c-0.3-8.6-0.2-17.2-0.7-25.8c-1.3-22.2-2.2-44.4-4.6-66.5c-1.4-12.8-5.3-25.3-8.2-37.9c-2.2-9.6-7.1-18.7-4.8-29.1
			c0.3-1.2,0-2.7-0.3-4c-4.4-16.7-8.3-33.5-13.5-50c-2.1-6.8-7.3-12.5-10.8-18.9c-2.1-3.8-3.6-7.8-5.3-11.8
			c-0.9-2.1-1.5-4.4-2.7-6.4c-4.2-6.7-8.7-13.2-12.9-19.8c-0.9-1.4-2-3-1.9-4.5c0.9-14.8-6.1-27.8-8.9-41.8
			C850.7,293.7,850,291.2,849,287.2z"/>
		<path d="M5045.5,411.6c-1.3,3.3-2.1,5.7-3.2,8.1c-4,9.1-7.9,18.4-12.3,27.3c-21.1,43.6-37,89.2-52.4,134.9
			c-3.8,11.2-4.6,23.5-5.7,35.3c-4.3,45.8-8.3,91.6-12.3,137.4c-0.4,5-0.9,10-0.7,15c0.3,9.4-0.5,18.6-4,27.5
			c-3.7,9.8-1.7,19.8-1,29.7c3.1,42.5,6.1,85.1,9.7,127.6c2.3,26.9,5.6,53.7,8.6,80.5c4.3,38.1,8.7,76.1,13,114.2
			c2.3,20.5,4.6,41,6.9,61.6c0.1,1.3,0.2,2.5,0.3,4.7c-2.7-0.4-4.9-0.4-7-1c-27.2-7.9-54.2-16.2-81.5-23.8
			c-8.9-2.5-18.2-4.1-27.5-4.7c-68.8-4.4-137.7-7.9-206.5-12.8c-48.5-3.5-96.9-8.5-145.3-13.1c-26.2-2.5-52.3-5.4-78.5-8.2
			c-1.6-0.2-3.2-0.7-4.8-1c0-1.3-0.4-2.5,0.1-3.3c3.2-5.9,0.2-9.8-3.5-14.1c-18.2-20.8-35.4-42.6-54.6-62.5
			c-10.8-11.2-14.4-21.9-10.9-37.1c4.1-17.5,5.7-35.5,8.1-53.3c0.4-3.2-0.1-6.6-0.9-9.8c-4.2-17.1-8.8-34.2-13-51.3
			c-0.9-3.8-1.2-8-0.5-11.8c2.6-16.1,6-32.1,8.6-48.2c1.1-7.2,1.6-14.6,1.5-21.8c-0.4-29.3-1.8-58.6-1.6-88
			c0.1-14.9,2.8-29.8,3.7-44.8c2.6-39.1,13.6-76.6,20.9-114.9c8-41.5,16-83,24.1-124.6c0.4-2.2,1.2-4.4,1.9-7
			c13.9,1.2,27.4,2.4,40.9,3.3c4.5,0.3,9.1-0.2,13.7-0.3c7.9-0.2,15.8-0.6,23.7-0.4c11.3,0.3,22.5,0.9,33.8,1.5
			c6.3,0.3,12.8,0,18.9,1.4c11.6,2.7,22.4,0.4,33.3-3.1c4.4-1.4,9-3,13.5-3c28.8-0.3,56.8-6.7,85.2-10.3c14.7-1.8,29-3.4,43.6-0.4
			c4.7,1,10.1,0.5,14.8-0.5c18.4-3.9,36.8-5.5,55.6-3.8c11.6,1.1,23.1-0.1,34.7-2c20.3-3.4,41-5,61.5-7c13.3-1.2,26.6-1.8,39.9-2.3
			c5.6-0.2,11.3,0,16.9,0.9c8.9,1.4,17.6,0.3,25.2-3.9c12.3-6.7,25.5-9.5,38.9-12.3C5027.8,414.5,5036.3,413.2,5045.5,411.6z"/>
		<path d="M2290.4,1083.5c-42-8.2-83.3-6.2-123.7-12.4c-5.8-0.9-11.6-2.7-17.1-4.9c-7.7-3.2-15-7.2-22.4-11
			c-9-4.6-18.3-5.3-26.5,0.9c-17.7,13.3-38,16.7-59.3,17.2c-10,0.2-20,0.5-30,0.1c-18.6-0.8-37.3-1.7-55.9-3.2
			c-16.8-1.4-33.2,2.4-49.7,4c-34.1,3.4-68.2,8.1-102.3,10.9c-42.6,3.5-84.6,10.5-126.7,17.2c-16.1,2.6-32.4,3.5-48.7,4.9
			c-11.6,1-23.3,1.7-34.9,2.4c-1.9,0.1-3.8-0.2-6.8-0.5c1.4-17.1,6.5-32.9,9.4-49.8c3.6-0.2,7.1-0.4,11.4-0.7
			c-0.5-2.1-0.9-3.8-1.4-5.6c-0.7-2.5-2.3-5.1-2-7.5c0.8-6.2,0.6-12.3-0.2-18.5c-0.7-5.5-0.6-11.1-0.4-16.6
			c0.2-8.5,0.7-16.9,1.2-25.3c0.3-5,0.8-9.9,1.2-14.9c0.2-2.6-0.1-5.7,1.1-7.8c2.7-4.7,3.8-9.1,0.4-13.9c-0.7-1-1.2-2.8-0.8-3.8
			c4.8-11.2,1.7-22.5,1.1-33.8c-0.3-5.7,0.4-12,2.6-17.2c3.4-7.8,1.5-15.8,2.6-23.6c0.5-3.5,1.4-7,1.9-10.5
			c0.6-4.6,1.6-9.2,1.4-13.8c-0.4-8.6-1.4-17.1-2.2-25.6c-0.8-8.9-2.1-17.8-2.4-26.7c-0.4-12-0.5-24,0.2-35.9
			c0.9-14,0.8-28-1.3-41.6c-3.2-21.2-3.1-42.3-1.8-63.5c0.6-9.3,1.9-18.6,1.4-27.8c-0.3-6.8-3-13.5-4.7-20.2
			c-0.6-2.2-2.1-4.2-2.5-6.5c-2.6-13.3-5-26.6-7.7-39.8c-0.8-3.8-2.7-7.4-4-11c-2.3-6.2-5.7-12.2-6.5-18.6c-1-7.8-3.8-14.6-6.8-21.6
			c-7.9-18.3-15.5-36.8-23.3-55.2c-1.5-3.6-1.6-6.7,0.6-10.3c2.5-4.1,3.9-8.9,5.8-13.6c41.5,5.5,79.8,19,117.9,33.2
			c11.1,4.1,22.2,6.5,34.1,6.4c43.7-0.2,87.1,4.7,130.5,9.3c20.2,2.1,40.5,3.8,60.8,3.7c45.4-0.1,90.6,2.6,135.9,4.2
			c26.3,0.9,52.6-0.9,78.9-1.9c22.3-0.8,44.7-1.4,66.8-3.6c22.5-2.2,44.9-6.1,67.3-9.3c1-0.1,2,0,3.5,0c0.2,2.4,0.6,4.7,0.4,6.9
			c-1.7,22.3-3,44.5-8.5,66.3c-10.5,41.9-13.9,84.7-17.3,127.5c-2.1,26.9-4.7,53.8-7,80.6c-0.1,0.7-0.2,1.3-0.2,2
			c0.2,43.3,0,86.6,0.8,129.9c0.4,19.6,3.6,39.2,4.2,58.8c0.7,24.1,9.1,46.3,15,69.1c0.8,3.1,3.2,5.8,5.1,8.5
			c12.3,18.6,24.8,37.1,37.1,55.7C2287.6,1077.5,2288.6,1080,2290.4,1083.5z"/>
		<path d="M1917.1,460.5c-7.5-15.2-0.7-28.5,1.2-41.5c6.4-0.8,12.5-1.8,18.7-2.1c7.2-0.4,14.4-1.5,21.6,1.1c2,0.7,4.7,0.8,6.8,0.2
			c11.8-3.6,23.6-2.4,35.5-1.5c8.5,0.6,17.1-0.3,25.6-0.7c11.5-0.6,23-1.8,34.6-1.9c4.8,0,9.8,1.5,14.3,3.2
			c5.2,1.9,10.2,3.4,15.5,1.5c5.7-2.1,11-0.5,16.6,0.6c6.4,1.2,13.1,1.8,19.6,1.8c8.8,0,17.7-0.6,26.5-1.2
			c6.9-0.5,13.8-1.5,20.7-1.9c2.9-0.2,5.9,0.7,8.9,1c9.5,1,18.9,4.4,28.6,1.1c0.3-0.1,0.7-0.1,1-0.1c9.1,1.7,18.4,5.3,27.3,4.6
			c9.2-0.7,17.8-0.4,26.4,2.6c4,1.4,7.9,3.4,11.4,5.8c3.4,2.4,4.1,5.8,3.9,10.4c-0.3,9.1,1.1,18.3,1.9,27.5
			c0.4,4.9,1.2,9.8,1.3,14.6c0.2,8.6,0.1,17.1,0.1,26.9c-6.4-4.3-10.8-7.9-9.9-15.8c1.3-11.6,1.9-23.2,2.7-34.9
			c0.6-9.5-6.2-15.3-15.5-13.9c-28.6,4.3-57.2,9.1-86,12.3c-19.2,2.1-38.6,1.7-57.9,2.6c-42.9,1.9-85.8,2.7-128.8-0.5
			c-20.9-1.6-41.9-1.2-62.9-1.7C1923.3,460.4,1919.7,460.5,1917.1,460.5z"/>
		<path d="M2285.4,1011.4c-4.9,2.5-8.7,4.5-12.8,6.5c-12.7-14-16.7-30.8-16.8-48.8c0-2.2,1.1-4.5,1.9-6.6c3.1-8,1.9-15.2-1.8-23
			c-3-6.4-4.8-13.9-5.1-20.9c-0.4-9.8,1.5-19.7,1.8-29.6c0.2-7.8,0.9-16.1-1.2-23.4c-3.6-12.1-4.2-24.2-2.6-36.2
			c1-7.7-0.9-14.4-2-21.6c-0.5-3.4-0.4-7.1,0.5-10.4c2.5-9.3,5.8-18.4,3.8-28.3c-0.4-1.9-0.3-4.1,0.2-5.9c1.9-7.2,0.1-13.8-3.4-20.5
			c4.8-6.2,5.6-13.5,5.9-21.4c0.4-14.5,1.1-29.2,5.4-43.2c0.5-1.5,0.8-3.3,1.8-4.5c4.5-5.4,6.4-11.4,5.1-18.5
			c-0.4-2.1,0.9-4.5,1.3-6.8c0.5-3.3,1.8-6.7,1.2-9.8c-1.7-9.1,0.9-16.7,5.6-22.9c4.1,4.8,8.6,9.4,12.4,14.6
			c1.6,2.2,2.4,5.4,2.5,8.1c0.9,34,2.2,67.9,2.4,101.9c0.4,70,0.1,139.9,0.1,209.9c0,10-0.5,19.9-4.2,29.5
			c-1.6,4.2-1.6,9.1-1.8,13.7C2285.2,999.2,2285.4,1005.1,2285.4,1011.4z"/>
		<path d="M4022,1125.6c2.5-3.1,3.4-5.2,4.7-5.4c2.9-0.6,5.9-0.3,8.9-0.3c25.6,0.5,51.2,0.3,76.7,2c18.7,1.3,37.2,5.2,55.6,9
			C4119.9,1130.3,4072,1128.2,4022,1125.6z"/>
		<path d="M2275.8,601.2c0-3.8-0.2-10.1,3.8-16.1c2-2.9,1.5-7.5,1.9-11.4c0.2-2.4,0-4.9,0-7.4c0.7-0.1,1.4-0.2,2.1-0.3
			c0.9,4.3,2.3,8.6,2.7,13c0.5,4.8,1.7,10.5-0.2,14.3C2284,597.1,2278.5,599.2,2275.8,601.2z"/>
		<path class="st58" d="M4728.3,1205.3c4.1-0.8,8.2-1.6,12.3-2.3c0.2,0.8,0.3,1.6,0.5,2.4c-4.1,0.7-8.2,1.4-12.3,2.2
			C4728.6,1206.8,4728.5,1206,4728.3,1205.3z"/>
		<path class="st58" d="M3763.4,1335.7c-0.7-2.6-1.4-5.2-2-7.8c0.7-0.2,1.4-0.4,2.1-0.5c0.5,2.7,1,5.4,1.5,8.1
			C3764.5,1335.5,3763.9,1335.6,3763.4,1335.7z"/>
		<path class="st58" d="M894.3,690.2c4.3,6.9,3.7,12,0,17.1C894.3,702.3,894.3,697.2,894.3,690.2z"/>
	</g>
</g>
</svg>
